<svg viewBox="0 0 330 200" xmlns="http://www.w3.org/2000/svg"><g><g><g><g><g><line x1="40.84375" y1="175" x2="35.84375" y2="175" style="visibility: inherit;" fill="rgb(0, 0, 0)" stroke="rgb(204, 204, 204)" stroke-width="1px"></line><line x1="40.84375" y1="159.0909090909091" x2="35.84375" y2="159.0909090909091" style="visibility: inherit;" fill="rgb(0, 0, 0)" stroke="rgb(204, 204, 204)" stroke-width="1px"></line><line x1="40.84375" y1="143.18181818181816" x2="35.84375" y2="143.18181818181816" style="visibility: inherit;" fill="rgb(0, 0, 0)" stroke="rgb(204, 204, 204)" stroke-width="1px"></line><line x1="40.84375" y1="127.27272727272728" x2="35.84375" y2="127.27272727272728" style="visibility: inherit;" fill="rgb(0, 0, 0)" stroke="rgb(204, 204, 204)" stroke-width="1px"></line><line x1="40.84375" y1="111.36363636363636" x2="35.84375" y2="111.36363636363636" style="visibility: inherit;" fill="rgb(0, 0, 0)" stroke="rgb(204, 204, 204)" stroke-width="1px"></line><line x1="40.84375" y1="95.45454545454545" x2="35.84375" y2="95.45454545454545" style="visibility: inherit;" fill="rgb(0, 0, 0)" stroke="rgb(204, 204, 204)" stroke-width="1px"></line><line x1="40.84375" y1="79.54545454545455" x2="35.84375" y2="79.54545454545455" style="visibility: inherit;" fill="rgb(0, 0, 0)" stroke="rgb(204, 204, 204)" stroke-width="1px"></line><line x1="40.84375" y1="63.63636363636364" x2="35.84375" y2="63.63636363636364" style="visibility: inherit;" fill="rgb(0, 0, 0)" stroke="rgb(204, 204, 204)" stroke-width="1px"></line><line x1="40.84375" y1="47.72727272727273" x2="35.84375" y2="47.72727272727273" style="visibility: inherit;" fill="rgb(0, 0, 0)" stroke="rgb(204, 204, 204)" stroke-width="1px"></line><line x1="40.84375" y1="31.81818181818181" x2="35.84375" y2="31.81818181818181" style="visibility: inherit;" fill="rgb(0, 0, 0)" stroke="rgb(204, 204, 204)" stroke-width="1px"></line><line x1="40.84375" y1="15.909090909090914" x2="35.84375" y2="15.909090909090914" style="visibility: inherit;" fill="rgb(0, 0, 0)" stroke="rgb(204, 204, 204)" stroke-width="1px"></line><line x1="40.84375" y1="0" x2="35.84375" y2="0" style="visibility: inherit;" fill="rgb(0, 0, 0)" stroke="rgb(204, 204, 204)" stroke-width="1px"></line></g><g transform="translate(30.84375, 0)"><text x="0" y="175" dx="0em" dy="0.3em" style="text-anchor: end; visibility: hidden; font-family: Roboto, sans-serif; font-size: 12px; font-weight: 200;" fill="rgb(50, 49, 63)" stroke="none" stroke-width="1px">110</text><text x="0" y="159.0909090909091" dx="0em" dy="0.3em" style="text-anchor: end; visibility: inherit; font-family: Roboto, sans-serif; font-size: 12px; font-weight: 200;" fill="rgb(50, 49, 63)" stroke="none" stroke-width="1px">120</text><text x="0" y="143.18181818181816" dx="0em" dy="0.3em" style="text-anchor: end; visibility: hidden; font-family: Roboto, sans-serif; font-size: 12px; font-weight: 200;" fill="rgb(50, 49, 63)" stroke="none" stroke-width="1px">130</text><text x="0" y="127.27272727272728" dx="0em" dy="0.3em" style="text-anchor: end; visibility: inherit; font-family: Roboto, sans-serif; font-size: 12px; font-weight: 200;" fill="rgb(50, 49, 63)" stroke="none" stroke-width="1px">140</text><text x="0" y="111.36363636363636" dx="0em" dy="0.3em" style="text-anchor: end; visibility: hidden; font-family: Roboto, sans-serif; font-size: 12px; font-weight: 200;" fill="rgb(50, 49, 63)" stroke="none" stroke-width="1px">150</text><text x="0" y="95.45454545454545" dx="0em" dy="0.3em" style="text-anchor: end; visibility: inherit; font-family: Roboto, sans-serif; font-size: 12px; font-weight: 200;" fill="rgb(50, 49, 63)" stroke="none" stroke-width="1px">160</text><text x="0" y="79.54545454545455" dx="0em" dy="0.3em" style="text-anchor: end; visibility: hidden; font-family: Roboto, sans-serif; font-size: 12px; font-weight: 200;" fill="rgb(50, 49, 63)" stroke="none" stroke-width="1px">170</text><text x="0" y="63.63636363636364" dx="0em" dy="0.3em" style="text-anchor: end; visibility: inherit; font-family: Roboto, sans-serif; font-size: 12px; font-weight: 200;" fill="rgb(50, 49, 63)" stroke="none" stroke-width="1px">180</text><text x="0" y="47.72727272727273" dx="0em" dy="0.3em" style="text-anchor: end; visibility: hidden; font-family: Roboto, sans-serif; font-size: 12px; font-weight: 200;" fill="rgb(50, 49, 63)" stroke="none" stroke-width="1px">190</text><text x="0" y="31.81818181818181" dx="0em" dy="0.3em" style="text-anchor: end; visibility: inherit; font-family: Roboto, sans-serif; font-size: 12px; font-weight: 200;" fill="rgb(50, 49, 63)" stroke="none" stroke-width="1px">200</text><text x="0" y="15.909090909090914" dx="0em" dy="0.3em" style="text-anchor: end; visibility: hidden; font-family: Roboto, sans-serif; font-size: 12px; font-weight: 200;" fill="rgb(50, 49, 63)" stroke="none" stroke-width="1px">210</text><text x="0" y="0" dx="0em" dy="0.3em" style="text-anchor: end; visibility: hidden; font-family: Roboto, sans-serif; font-size: 12px; font-weight: 200;" fill="rgb(50, 49, 63)" stroke="none" stroke-width="1px">220</text></g><line x1="40.84375" y1="0" x2="40.84375" y2="175" fill="rgb(0, 0, 0)" stroke="rgb(204, 204, 204)" stroke-width="1px"></line></g></g><g transform="translate(40, 0)" clip-path="url(#clip_0)"><clipPath id="clip_0"><rect width="289" height="175"></rect></clipPath><g><g><g><line x1="0" y1="0" x2="0" y2="175" fill="rgb(0, 0, 0)" stroke="rgb(60, 60, 60)" stroke-width="1px" opacity="0.25"></line><line x1="24.096354166666664" y1="0" x2="24.096354166666664" y2="175" fill="rgb(0, 0, 0)" stroke="rgb(60, 60, 60)" stroke-width="1px" opacity="0.25"></line><line x1="48.19270833333333" y1="0" x2="48.19270833333333" y2="175" fill="rgb(0, 0, 0)" stroke="rgb(60, 60, 60)" stroke-width="1px" opacity="0.25"></line><line x1="72.2890625" y1="0" x2="72.2890625" y2="175" fill="rgb(0, 0, 0)" stroke="rgb(60, 60, 60)" stroke-width="1px" opacity="0.25"></line><line x1="96.38541666666666" y1="0" x2="96.38541666666666" y2="175" fill="rgb(0, 0, 0)" stroke="rgb(60, 60, 60)" stroke-width="1px" opacity="0.25"></line><line x1="120.48177083333334" y1="0" x2="120.48177083333334" y2="175" fill="rgb(0, 0, 0)" stroke="rgb(60, 60, 60)" stroke-width="1px" opacity="0.25"></line><line x1="144.578125" y1="0" x2="144.578125" y2="175" fill="rgb(0, 0, 0)" stroke="rgb(60, 60, 60)" stroke-width="1px" opacity="0.25"></line><line x1="168.67447916666669" y1="0" x2="168.67447916666669" y2="175" fill="rgb(0, 0, 0)" stroke="rgb(60, 60, 60)" stroke-width="1px" opacity="0.25"></line><line x1="192.77083333333331" y1="0" x2="192.77083333333331" y2="175" fill="rgb(0, 0, 0)" stroke="rgb(60, 60, 60)" stroke-width="1px" opacity="0.25"></line><line x1="216.8671875" y1="0" x2="216.8671875" y2="175" fill="rgb(0, 0, 0)" stroke="rgb(60, 60, 60)" stroke-width="1px" opacity="0.25"></line><line x1="240.96354166666669" y1="0" x2="240.96354166666669" y2="175" fill="rgb(0, 0, 0)" stroke="rgb(60, 60, 60)" stroke-width="1px" opacity="0.25"></line><line x1="265.0598958333333" y1="0" x2="265.0598958333333" y2="175" fill="rgb(0, 0, 0)" stroke="rgb(60, 60, 60)" stroke-width="1px" opacity="0.25"></line><line x1="289.15625" y1="0" x2="289.15625" y2="175" fill="rgb(0, 0, 0)" stroke="rgb(60, 60, 60)" stroke-width="1px" opacity="0.25"></line></g><g><line x1="0" y1="175" x2="289.15625" y2="175" fill="rgb(0, 0, 0)" stroke="rgb(60, 60, 60)" stroke-width="1px" opacity="0.25"></line><line x1="0" y1="159.0909090909091" x2="289.15625" y2="159.0909090909091" fill="rgb(0, 0, 0)" stroke="rgb(60, 60, 60)" stroke-width="1px" opacity="0.25"></line><line x1="0" y1="143.18181818181816" x2="289.15625" y2="143.18181818181816" fill="rgb(0, 0, 0)" stroke="rgb(60, 60, 60)" stroke-width="1px" opacity="0.25"></line><line x1="0" y1="127.27272727272728" x2="289.15625" y2="127.27272727272728" fill="rgb(0, 0, 0)" stroke="rgb(60, 60, 60)" stroke-width="1px" opacity="0.25"></line><line x1="0" y1="111.36363636363636" x2="289.15625" y2="111.36363636363636" fill="rgb(0, 0, 0)" stroke="rgb(60, 60, 60)" stroke-width="1px" opacity="0.25"></line><line x1="0" y1="95.45454545454545" x2="289.15625" y2="95.45454545454545" fill="rgb(0, 0, 0)" stroke="rgb(60, 60, 60)" stroke-width="1px" opacity="0.25"></line><line x1="0" y1="79.54545454545455" x2="289.15625" y2="79.54545454545455" fill="rgb(0, 0, 0)" stroke="rgb(60, 60, 60)" stroke-width="1px" opacity="0.25"></line><line x1="0" y1="63.63636363636364" x2="289.15625" y2="63.63636363636364" fill="rgb(0, 0, 0)" stroke="rgb(60, 60, 60)" stroke-width="1px" opacity="0.25"></line><line x1="0" y1="47.72727272727273" x2="289.15625" y2="47.72727272727273" fill="rgb(0, 0, 0)" stroke="rgb(60, 60, 60)" stroke-width="1px" opacity="0.25"></line><line x1="0" y1="31.81818181818181" x2="289.15625" y2="31.81818181818181" fill="rgb(0, 0, 0)" stroke="rgb(60, 60, 60)" stroke-width="1px" opacity="0.25"></line><line x1="0" y1="15.909090909090914" x2="289.15625" y2="15.909090909090914" fill="rgb(0, 0, 0)" stroke="rgb(60, 60, 60)" stroke-width="1px" opacity="0.25"></line><line x1="0" y1="0" x2="289.15625" y2="0" fill="rgb(0, 0, 0)" stroke="rgb(60, 60, 60)" stroke-width="1px" opacity="0.25"></line></g></g></g><g><g><line x1="0" y1="350" x2="289.15625" y2="350" fill="rgb(0, 0, 0)" stroke="rgb(153, 153, 153)" stroke-width="1.5px"></line></g></g><g><g><line x1="24.096354166666664" y1="0" x2="24.096354166666664" y2="175" fill="rgb(0, 0, 0)" stroke="rgb(153, 153, 153)" stroke-width="1.5px"></line></g></g><g><g><g><g><g><path stroke="rgb(0, 119, 187)" stroke-width="2px" d="M31.32526041666667,190.65862233461957L31.4457421875,127.12243208184987L31.68670572916667,89.00072691975375L31.92766927083333,66.12770705873892L32.04815104166667,52.40389630717709L32.1686328125,44.16961027565695L32.28911458333333,39.22903880773498L32.65055989583333,36.26469598133825L32.77104166666666,34.48609030506848L32.8915234375,33.418926906351196L33.012005208333335,56.324083467568784L33.25296875,46.521722794710676L33.6144140625,40.64030639938202L34.216822916666665,37.11145656520373L34.3373046875,46.44869212363644L34.45778645833334,40.59648800044072L34.57826822916667,40.26698370932111L34.69875,36.88746295265461L34.81923177083333,34.85975049878962L35.421640625,36.188577572030816L36.385494791666666,34.440419270467665L36.74694010416666,42.30061519870778L36.867421875,38.10764184647707L37.71079427083333,35.591857835151636L38.07223958333333,34.08238742836101L38.313203125,33.176705184288416L38.43368489583333,32.63329583784548L38.55416666666667,32.307250229979886L39.03609375,34.65707741071576L39.15657552083333,33.521519173702025L39.277057291666665,32.840184231493865L39.63850260416667,32.431383266169036L39.758984375000004,62.731557232429566L40.12042968750001,54.18438888491215L40.60235677083333,45.23790605821994L40.8433203125,39.8700163622047L41.08428385416667,59.55837345368657L41.20476562499999,71.37138770857561L41.32524739583333,85.45919626150904L41.445729166666666,67.18460866599631L41.92765625,79.76531065414325L42.16861979166667,60.58645911975863L42.53006510416667,68.80642092640062L42.650546874999996,54.011125283113074L42.77102864583333,45.13394789714059L43.0119921875,39.80764146555712L43.132473958333335,52.52094851569791L43.25295572916667,44.239841836691454L43.61440104166667,78.08935964746942L43.85536458333333,76.76270669757257L43.97584635416666,58.78489674581626L44.216809895833336,47.9982107747625L44.337291666666665,41.5261991921302L44.69873697916666,37.642992242550875L45.30114583333334,35.31306807280325L45.421627604166666,33.91511357095468L45.542109375,33.07634086984555L45.78307291666666,59.3003499764528L45.9035546875,85.21657362223532L46.144518229166664,86.12994417334123L46.38548177083334,101.95069377673204L46.50596354166667,120.98859808422107L46.6264453125,85.32043157780538L46.74692708333333,107.19225894668324L46.987890625,77.04262809528265L47.10837239583333,58.95284958444232L47.95174479166667,103.4626188415745L48.433671875,74.80484403221746L48.915598958333334,84.97381551023955L49.03608072916667,87.89338021523464L49.15656250000001,65.46330085641357L49.63848958333333,52.00525324112086L49.999934895833334,43.93042467194529L50.36138020833333,43.540072984985365L50.481861979166666,38.85131651826393L50.84330729166667,60.21988082004931L50.9637890625,48.859201219302335L51.20475260416667,42.0427934588541L51.325234375,37.95294880258523L51.44571614583333,35.49904200882385L51.686679687499996,34.02669793256703L51.80716145833333,55.416018759540215L52.048125,68.88597489208773L52.168606770833335,134.24067584434354L52.28908854166667,112.9989509611516L52.65053385416667,104.7084614857819L53.01197916666666,91.46144052783276L53.61438802083334,94.96777340760876L53.8553515625,109.16248222638343L54.09631510416666,78.22476206310283L54.216796875,96.5712208742253L54.81920572916666,70.67000525180792L55.180651041666664,69.76563951472114L55.3011328125,74.31392916337815L55.42161458333334,57.31563022529962L55.54209635416667,78.93483268063433L55.78305989583333,60.088172335653326L56.264986979166665,53.8710852195738L56.50595052083333,74.3226511317443L56.746914062500004,94.86631795177381L56.98787760416667,107.19251804379155L57.59028645833333,118.40641991718404L57.831250000000004,107.95294285940129L58.31317708333333,123.95358389745897L58.9155859375,140.55396852029355L59.15654947916667,143.51419929399432L59.27703124999999,149.74488321276024L59.638476562499996,140.11965720038341L59.87944010416667,141.34452159295734L59.999921875,146.53398568304712L60.120403645833335,149.01130050073735L60.3613671875,144.1340530277151L60.48184895833333,147.57134090753817L60.60233072916667,142.633713635432L61.0842578125,141.5802281812592L61.204739583333335,149.2208641814828L61.445703125,150.6234275997988L61.8071484375,147.64678383260656L62.289075520833336,129.3153430268367L62.409557291666665,136.77102399792017L62.5300390625,145.69897803511577L62.65052083333334,135.78302318470585L62.891484375,141.28799572900536L63.2529296875,140.13643380103957L63.37341145833334,137.5364057351692L63.493893229166666,147.43093435019242L63.85533854166666,138.73128788284274L63.9758203125,133.5115000024329L64.21678385416666,131.01599091055067L64.93967447916667,120.6095945463304L65.18063802083333,118.82030218234368L65.54208333333332,106.92854494576984L65.66256510416666,111.24803605837097L65.90352864583333,127.83973072593167L66.02401041666667,139.703838435559L66.62641927083332,141.09503033406264L66.74690104166666,144.47520001861935L66.98786458333333,145.2305745566262L67.228828125,145.68379927943027L67.34930989583333,149.7739159312945L67.46979166666667,137.59162228604947L67.83123697916666,130.2822460989024L67.95171875,133.53298402297781L68.3131640625,134.2106995046958L68.43364583333333,139.07187424827202L68.674609375,131.17039727623592L68.79509114583334,137.88405654755974L69.0360546875,142.54861574671764L69.51798177083333,149.16553308439424L69.63846354166667,148.04477439609107L69.7589453125,136.55413736492739L69.99990885416668,133.477936964411L70.120390625,123.35948945137389L70.4818359375,124.92478457991523L70.60231770833333,130.95487074794914L70.72279947916667,132.0274679033149L70.84328125,143.48920801471624L71.08424479166666,140.8207975361025L71.2047265625,131.58338761257062L71.32520833333334,132.4045780220878L71.44569010416666,133.53365590416178L72.53002604166667,132.9383753606789L72.6505078125,128.7630252164073L72.89147135416667,121.16690603893527L73.25291666666668,119.1546890779066L74.09628906249999,127.49281344674397L74.21677083333333,116.58659715895547L74.69869791666667,131.679231022646L74.8191796875,140.09844770449666L74.93966145833333,147.69543225906165L75.180625,143.98089571907337L75.42158854166667,144.9339919768986L75.903515625,138.50584973159368L76.9878515625,139.10350983895623L77.10833333333333,124.18937863064643L77.22881510416667,132.42271808747876L77.34929687500001,134.8172672161236L77.59026041666667,115.25399669331053L77.7107421875,119.42512528871357L78.0721875,107.29143880959178L78.4336328125,108.92031783120966L79.27700520833334,97.17037251690763L79.39748697916667,75.48404169196277L79.51796875000001,58.01769774245041L79.63845052083333,47.537891372742976L79.8794140625,67.97728027819124L79.99989583333334,76.42273180327837L80.12037760416668,104.39909362742156L80.36134114583332,116.73036526736205L80.48182291666666,122.85640097859903L80.6023046875,121.44111331443213L80.84326822916667,114.22830435229565L81.08423177083333,111.17334624774102L81.20471354166666,82.61309865773553L81.686640625,62.29513192191405L82.53001302083332,50.10435188042116L82.89145833333333,42.78988385552543L83.01194010416667,38.40120304058804L83.25290364583333,35.76799455162552L83.4938671875,34.188069458248044L83.8553125,33.240114402221586L85.18061197916666,32.67134136860572L85.54205729166667,32.330077548436165L85.6625390625,32.12531925633445L85.78302083333334,32.002464281073394L86.023984375,31.928751295916783L86.26494791666667,31.884523504822802L86.38542968750001,54.767077739257324L86.62639322916667,53.22388300719074L87.22880208333333,51.66160253158716L87.34928385416666,43.72423424622505L88.07217447916666,38.96181327500778L88.31313802083334,84.46799705591378L88.43361979166667,94.58988914263918L88.55410156250001,103.20847894012893L88.67458333333333,120.47054190953193L88.79506510416667,123.82777969117369L88.915546875,127.11484963288602L89.03602864583334,136.7234552342771L89.15651041666668,149.48861859511172L89.27699218750001,146.96589842979432L89.39747395833332,153.72499360333114L89.6384375,104.96226888927141L89.9998828125,124.06827042447193L90.12036458333333,133.62278043650136L90.24084635416666,92.90094098917358L90.48180989583334,68.4678373207769L90.96373697916667,53.807975119738884L91.20470052083334,45.012057799116064L91.44566406249999,39.734507406742395L91.92759114583333,36.56797717131822L92.04807291666667,34.66805903006367L92.16855468749999,33.5281081453109L92.40951822916666,32.84413761445928L92.65048177083334,32.433755295948274L92.8914453125,32.18752590484171L93.13240885416667,32.03978827017776L93.252890625,31.95114568937939L93.6143359375,31.897960140900388L93.85529947916666,31.866048811813L93.97578125,31.84690201436053L94.09626302083333,31.835413935889044L94.21674479166666,31.82852108880618L94.33722656249999,31.824385380556436L94.45770833333333,31.8219039556066L94.698671875,31.820415100636684L94.81915364583334,31.819521787654743L95.42156250000001,31.818985799865583L95.54204427083334,31.8186642071921L95.7830078125,31.818471251587965L95.90348958333334,31.8183554782255L96.02397135416668,31.81828601420806L96.38541666666666,31.818244335797612L96.62638020833333,31.818219328751308L96.86734375,31.81820432452349L97.10830729166666,31.818195321986817L97.34927083333334,31.818189920464818L97.59023437500001,73.18182304318799L97.71071614583333,56.6363665531855L97.83119791666667,46.709092659184016L98.19264322916668,40.75272832278315L98.6745703125,37.17890972094266L98.79505208333333,35.03461855983836L99.036015625,33.74804386317574L99.15649739583333,32.9760990451782L99.3974609375,35.69475033619785L99.87938802083333,34.14412292899147L100.48179687499999,33.213746484667595L101.32516927083333,32.655520618073325L101.44565104166666,32.32058509811675L101.68661458333334,32.11962378614282L101.80709635416667,31.99904699895841L101.927578125,31.92670092664782L102.04805989583333,31.88329328326141L102.16854166666667,31.857248697229597L102.2890234375,31.841621945610505L102.52998697916667,31.83224589463903L102.65046875,31.82662026405614L103.13239583333333,31.823244885706433L103.25287760416666,31.821219658696602L103.49384114583333,31.820004522490684L103.7348046875,31.81927544076714L104.09625,31.818837991733055L104.33721354166667,31.818575522312535L104.45769531250001,31.818418040660283L104.57817708333334,31.818323551668946L104.93962239583334,31.818266858274104L105.06010416666668,31.818232842237173L105.1805859375,31.818212432615038L105.30106770833333,31.818200186841775L105.42154947916666,31.818192839377822L105.66251302083333,31.818188430899422L105.78299479166667,31.81818578581242L105.9034765625,31.818184198760193L106.14444010416666,31.81818324652889L106.264921875,31.81818267519006L106.38540364583334,31.818182332386787L106.50588541666667,75.09090939943206L106.62636718750001,93.41818200329557L106.74684895833333,101.86909102015916L106.9878125,73.8487273393682L107.10829427083334,57.03650913089363L107.46973958333332,46.94917820580893L107.95166666666667,40.89677965075806L108.31311197916666,60.1744314268185L108.43359375,48.83193158336383L108.55407552083334,42.02643167729103L108.7950390625,37.94313173364736L108.91552083333333,35.49315176746114L109.03600260416667,34.023163787749425L109.156484375,33.14117099992238L109.39744791666668,32.611975327226176L109.51792968749999,32.294457923608455L109.63841145833332,32.103947481437814L110.12033854166667,31.9896412161354L110.602265625,31.92105745695401L110.72274739583334,31.879907201445146L110.9637109375,31.85521704813983L111.08419270833333,31.840402956156648L111.20467447916667,75.74060541005763L111.32515625,58.17163597330731L111.44563802083334,49.53934522034798L111.56611979166667,72.99633440493605L111.92756510416666,56.52507337023433L112.048046875,75.91504402214062L112.7709375,58.27629914055711L113.01190104166666,47.693052211607004L113.1323828125,41.34310405423693L113.25286458333333,37.5331351598149L113.37334635416667,35.247153823161675L113.61430989583334,36.421019566624274L113.97575520833334,34.57988446724732L114.09623697916668,45.566112498530224L114.45768229166666,40.06694022639086L114.5781640625,64.13107322674362L114.69864583333333,51.20591666331889L114.939609375,43.45082272526408L115.18057291666666,38.797766362431204L115.54201822916667,36.005932544731444L115.66250000000001,34.3308322541116L115.90346354166667,33.32577207973969L116.26490885416668,32.722735975116564L116.38539062500001,32.3609143123427L116.50587239583332,32.14382131467835L116.7468359375,32.01356551607975L116.86731770833333,31.935412036920578L116.98779947916667,31.888519949425106L117.22876302083333,31.860384696927806L117.34924479166666,31.843503545429407L117.4697265625,31.83337485453038L118.07213541666667,31.827297639990967L118.55406249999999,31.823651311267312L118.67454427083332,31.82146351403312L118.9155078125,31.820150835692626L119.15647135416667,31.8193632286883L119.39743489583333,31.818890664485718L119.51791666666666,31.81860712596418L119.6383984375,31.81843700285126L119.75888020833334,31.8183349289835L119.87936197916667,31.818273684662824L119.99984375,31.81823693807043L120.24080729166667,31.818214890114994L120.48177083333334,31.81820166134173L120.722734375,31.818193724077794L121.0841796875,31.81818896171941L121.32514322916666,31.818186104304402L121.44562499999999,31.81818438985536L121.56610677083333,31.818183361185977L122.04803385416666,31.818182743984362L122.28899739583333,31.818182373663355L122.40947916666667,31.81818215147077L122.65044270833334,31.81818201815523L123.01188802083334,31.818181938165853L123.2528515625,31.81818189017223L123.37333333333333,31.818181861376107L123.49381510416666,31.81818184409839L123.85526041666667,31.81818183373177L124.21670572916666,31.8181818275118L124.3371875,31.81818182377982L124.57815104166667,31.81818182154062L124.81911458333333,31.81818182019711L125.060078125,31.818181819390986L125.66248697916666,46.454545455270974L125.90345052083333,40.60000000043532L126.02393229166667,37.087272727533914L126.1444140625,34.97963636379308L126.26489583333333,33.71505454554859L126.62634114583334,32.9563054546019L127.34923177083334,32.50105600003389L127.59019531249999,32.22790632729305L127.71067708333332,32.06401652364854L127.83115885416666,31.96568264146189L127.951640625,31.906682312149844L128.07212239583333,31.87128211456264L128.55404947916668,31.8500419960103L128.79501302083335,31.837297924878897L128.91549479166667,31.82965148220007L129.27694010416667,31.825063616592768L129.397421875,31.8223108972284L129.51790364583334,31.82065926560976L129.63838541666667,31.81966828663861L129.7588671875,31.819073699255917L129.99983072916666,31.81871694682626L130.1203125,31.818502895368496L130.24079427083333,62.36382900994839L130.36127604166666,50.14557013324177L130.60223958333333,42.81461480721776L130.96368489583335,38.4160416116034L131.2046484375,35.776897694234755L131.32513020833332,34.19341134381356L131.56609375,33.24331953356087L131.68657552083334,89.94599172013653L132.04802083333334,66.69486775935464L132.16850260416666,52.74419338288554L132.40946614583333,95.28287966609501L132.52994791666666,69.89700052692973L133.3733203125,54.665473043430566L133.49380208333332,45.52655655333107L133.61428385416667,40.04320665927137L133.734765625,36.75319672283557L133.85524739583332,34.77919076097407L133.97572916666667,33.59478718385718L134.0962109375,32.88414503758708L134.33717447916666,32.457759749824966L134.45765625,32.201928577167685L134.57813802083334,32.04842987357335L134.93958333333333,31.95633065141676L135.06006510416668,31.901071118122793L135.180546875,31.867915398146426L135.30102864583333,31.848021966160584L135.5419921875,31.836085906969096L136.2648828125,31.828924271454227L136.38536458333334,31.82462729014527L136.50584635416666,31.8220491013599L136.74680989583334,31.820502188088675L137.22873697916668,31.819574040125946L137.59018229166668,31.819017151348334L137.95162760416667,31.81868301808176L138.4335546875,31.81848253812179L138.795,31.818362250145835L138.91548177083334,31.81829007736021L139.03596354166666,31.818246773688887L139.27692708333333,31.818220791486088L139.39740885416666,31.818205202164375L139.517890625,31.818195848571346L139.8793359375,31.818190236415557L139.99981770833335,31.81818686912206L140.24078125,31.81818484874594L140.48174479166667,31.818183636520324L140.6022265625,31.818182909184927L140.84319010416667,31.81818247278371L141.08415364583334,31.81818221094293L141.20463541666666,31.818182053838527L141.44559895833333,31.818181959575845L141.6865625,31.818181903018232L141.80704427083333,31.81818186908367L141.92752604166668,31.818181848722936L142.0480078125,31.818181836506472L142.409453125,31.818181829176627L142.52993489583332,31.818181824778698L142.65041666666667,53.4545454585036L143.01186197916667,44.800000002374894L143.13234375,39.6072727286977L144.09619791666668,36.49163636449137L144.45764322916668,34.622254545967586L144.578125,75.5006254548533L144.81908854166667,58.027648000184705L145.06005208333335,47.54386152738356L145.18053385416667,41.25358964370283L145.54197916666666,37.47942651349441L145.66246093750001,35.21492863536936L145.9034244791667,33.85622990849439L146.02390625,33.04101067236937L146.14438802083333,32.55187913069435L146.26486979166668,32.258400205689334L146.62631510416668,32.08231285068633L147.59016927083331,31.976660437684554L147.71065104166667,31.913268989883438L147.8311328125,31.875234121202777L148.07209635416666,31.852413199994405L148.31305989583333,31.838720647269376L148.43354166666666,31.830505115634352L148.5540234375,31.825575796653336L148.79498697916665,31.822618205264714L149.03595052083332,31.820843650431552L149.15643229166668,31.819778917531675L149.2769140625,31.819140077791744L149.638359375,80.18239313758413L149.75884114583334,60.836708609823226L149.87932291666667,98.22929789316663L150.48173177083333,115.57394237226357L150.7226953125,82.0716381506309L150.84317708333333,61.9702556176513L151.084140625,70.27306246149988L151.20462239583335,54.89111020417267L151.44558593750003,45.66193884977636L152.1684765625,40.12443603713855L152.2889583333333,36.80193434955584L152.52992187499999,34.80843333700624L152.77088541666666,40.61233272947648L153.2528125,37.09467236495861L153.49377604166668,34.98407614624788L153.73473958333332,33.717718415021466L153.975703125,32.95790377628564L154.21666666666667,32.502014993044135L154.45763020833334,32.22848172309917L154.57811197916666,32.064361761132226L154.69859375000001,31.965889783952072L154.81907552083334,31.906806597643943L154.9395572916667,31.871356685859098L155.421484375,31.850086738788193L155.66244791666668,31.837324770545624L155.78292968749997,31.829667589600103L156.5058203125,31.82507328103282L156.74678385416667,31.82231669589243L156.98774739583334,31.820662744808224L157.10822916666666,31.819670374157678L157.22871093749998,31.819074951767327L157.9516015625,31.818717698333135L158.313046875,31.818503346272607L158.55401041666667,31.8183747350363L158.91545572916667,31.818297568294522L159.27690104166666,31.818251268249472L159.3973828125,31.81822348822242L159.63834635416669,31.81820682020617L159.758828125,31.818196819396437L159.87930989583333,31.8181908189106L159.99979166666668,31.818187218619073L160.24075520833335,31.818185058444207L160.36123697916665,56.00000194415742L160.60220052083332,64.14545571194898L160.72268229166664,51.85090979080572L160.8431640625,43.837818601756155L161.204609375,39.02996388832644L161.3250911458333,36.1452510602686L161.56605468749999,34.41442336343388L162.52990885416668,33.375926745333054L162.650390625,32.75282877447257L162.77087239583332,32.37896999195632L162.89135416666667,32.15465472244652L163.25279947916667,32.02006556074066L163.37328125,31.939312063717143L163.49376302083334,31.890859965503L163.85520833333334,31.86178870657457L163.9756901041667,31.844345951217495L164.096171875,31.833880298003216L164.4576171875,31.827600906074647L165.9033984375,31.823833270917504L166.26484374999998,31.82157268982323L166.50580729166666,31.820216341166706L166.6262890625,31.819402531972756L166.86725260416665,31.818914246456405L166.987734375,31.818621275146576L167.3491796875,31.81844549236066L167.710625,31.818340022689135L167.83110677083334,31.8182767408862L167.95158854166667,31.818238771804463L168.07207031250002,31.818215990355444L168.19255208333334,31.818202321485995L168.31303385416666,31.818194120164346L168.433515625,31.818189199371343L168.55399739583333,31.81818624689553L168.7949609375,31.81818447541005L169.03592447916668,31.81818341251875L169.15640625,31.818182774784013L169.39736979166665,31.818182392143136L169.63833333333332,31.818182162558628L169.879296875,31.8181820248079L169.99977864583332,31.818181942157466L170.12026041666667,31.81818189256725L170.2407421875,31.81818186281307L170.3612239583333,31.81818184496057L170.48170572916666,31.818181834249085L170.9636328125,31.81818182782222L171.56604166666668,31.818181823966064L171.6865234375,31.818181821652356L171.92748697916667,31.818181820264122L172.04796875,31.818181819431242L172.52989583333334,31.818181818931514L172.65037760416666,31.818181818631626L172.77085937500001,31.818181818451716L173.0118229166667,31.81818181834379L173.37326822916668,31.818181818279033L173.73471354166668,31.818181818240156L173.97567708333335,31.81818181821682L174.216640625,31.818181818202792L174.33712239583332,31.81818181819438L174.5780859375,31.818181818189366L174.69856770833331,31.818181818186336L175.06001302083334,31.81818181818453L175.18049479166666,31.81818181818344L175.30097656249998,31.81818181818282L175.54194010416666,31.81818181818245L175.662421875,31.81818181818218L175.78290364583333,31.818181818182044L176.0238671875,31.818181818181944L176.14434895833332,31.818181818181905L176.26483072916668,31.818181818181905L176.3853125,31.818181818181905L176.50579427083335,31.818181818181905L176.62627604166667,31.818181818181905L177.22868489583334,31.818181818181905L177.34916666666666,31.818181818181905L177.59013020833333,31.818181818181905L178.07205729166668,31.818181818181905L178.1925390625,31.818181818181905L178.43350260416665,31.818181818181905L178.9154296875,31.818181818181905L179.15639322916667,31.818181818181905L179.3973567708333,31.818181818181905L179.63832031249999,31.818181818181905L179.75880208333334,31.818181818181905L179.87928385416666,31.818181818181905L179.999765625,31.818181818181905L180.24072916666665,31.818181818181905L180.60217447916668,31.818181818181905L180.72265625,31.818181818181905L180.96361979166667,31.818181818181905L181.0841015625,31.818181818181905L181.20458333333335,31.818181818181905L181.445546875,31.818181818181905L181.92747395833334,31.818181818181905L182.1684375,31.818181818181905L182.28891927083333,31.818181818181905L182.5298828125,31.818181818181905L182.65036458333336,31.818181818181905L183.01180989583335,31.818181818181905L183.13229166666665,31.818181818181905L183.73470052083331,31.818181818181905L183.85518229166667,31.818181818181905L183.9756640625,31.818181818181905L184.09614583333334,31.818181818181905L184.33710937499998,31.818181818181905L184.57807291666666,40.09090909090916L184.6985546875,62.87272727272734L184.81903645833333,50.45090909090916L184.93951822916665,42.99781818181827L185.06,40.435054545454605L185.18048177083332,36.988305454545475L185.54192708333335,34.920256000000016L185.90337239583334,33.67942632727276L186.14433593750002,32.93492852363641L186.38529947916666,32.48822984145461L186.50578125,32.22021063214551L186.62626302083333,32.059399106560065L186.74674479166669,31.96291219120878L186.8672265625,31.905020041998L187.34915364583335,31.87028475247152L187.83108072916664,31.849443578755672L188.07204427083332,31.83693887452617L188.19252604166667,31.829436051988413L188.55397135416666,31.824934358465814L188.67445312499999,31.822233342352224L188.79493489583334,31.82061273268405L189.15638020833333,31.819640366883164L189.51782552083333,31.819056947402615L189.63830729166668,61.091434168441566L189.7587890625,49.38213322833767L189.99975260416667,42.35655266427536L190.120234375,38.14120432583793L190.24071614583335,35.61199532277553L190.60216145833334,34.09446992093804L190.84312500000001,33.18395467983555L190.96360677083334,32.637645535174066L191.0840885416667,32.309860048377196L191.2045703125,32.11318875629904L191.32505208333333,31.99518598105216L191.44553385416668,31.92438431590404L191.68649739583336,31.881903316815155L191.80697916666668,31.856414717361854L192.16842447916665,31.84112155768987L192.77083333333331,31.831945661886625L194.21661458333332,31.826440124404737L194.33709635416668,31.823136801915595L194.457578125,31.821154808422097L194.57805989583335,31.81996561232601L195.05998697916667,31.81925209466835L195.42143229166666,31.81882398407374L195.5419140625,31.818567117716963L195.78287760416669,31.818412997902946L195.903359375,33.091047798741776L196.02384114583333,32.5819014065178L196.14432291666668,32.276413571183404L196.38528645833335,32.09312086998279L196.62625000000003,31.9831452492624L196.74673177083332,31.917159876830198L196.86721354166664,31.877568653370858L197.10817708333332,31.853813919295234L197.22865885416667,31.839561078849858L197.349140625,31.83100937458266L197.59010416666666,31.825878352022304L197.83106770833334,31.8227997384861L198.55395833333333,31.820952570364422L198.794921875,31.819844269491366L199.39733072916667,31.81917928896754L199.5178125,31.818780300653263L199.99973958333334,31.818540907664676L200.6021484375,31.818397271871564L200.72263020833336,31.81831109039565L201.20455729166665,31.818259381510103L201.686484375,31.818228356178814L202.0479296875,31.81820974098002L202.40937499999998,31.81819857186077L202.52985677083333,31.81819187038919L202.65033854166666,31.81818784950625L203.01178385416665,31.818185436976453L203.132265625,31.818183989458625L203.4937109375,31.81818312094792L203.73467447916667,31.81818259984149L203.85515625,31.818182287177613L203.97563802083334,31.818182099579296L204.81901041666669,31.818181987020317L204.9394921875,31.818181919484907L205.05997395833333,31.818181878963674L205.18045572916668,31.81818185465093L205.42141927083335,31.818181840063282L205.54190104166665,31.818181831310696L205.66238281250003,31.818181826059142L205.78286458333332,31.8181818229082L205.90334635416664,31.818181821017653L206.023828125,31.818181819883314L206.14430989583332,31.81818181920272L206.26479166666667,31.818181818794365L206.3852734375,31.818181818549345L206.74671874999999,31.818181818402348L206.98768229166666,31.81818181831412L207.59009114583333,31.818181818261216L207.71057291666668,31.81818181822947L207.8310546875,31.81818181821039L208.07201822916667,31.818181818199005L208.91539062500001,31.818181818192127L209.1563541666667,31.81818181818801L209.75876302083336,31.818181818185522L209.87924479166668,31.818181818184083L210.361171875,31.81818181818317L210.60213541666667,31.818181818182627L210.7226171875,31.818181818182314L210.96358072916667,31.81818181818214L211.0840625,31.818181818182005L211.32502604166666,31.818181818181905L211.44550781249998,31.818181818181905L212.1683984375,31.818181818181905L212.28888020833332,31.818181818181905L212.40936197916668,31.818181818181905L213.01177083333334,31.818181818181905L213.13225260416667,31.818181818181905L214.21658854166668,31.818181818181905L214.3370703125,31.818181818181905L214.69851562500003,31.818181818181905L214.81899739583332,31.818181818181905L214.93947916666664,31.818181818181905L215.18044270833332,31.818181818181905L215.42140625,31.818181818181905L215.66236979166666,42.6363636363637L216.02381510416666,38.309090909090976L216.144296875,35.712727272727335L216.38526041666665,34.154909090909165L216.5057421875,33.220218181818225L216.74670572916668,32.65940363636365L216.98766927083332,32.32291490909093L217.10815104166667,32.1210216727273L217.34911458333335,31.999885730909128L217.46959635416667,31.927204165818203L217.95152343750001,31.88359522676365L218.07200520833334,31.857429863330943L218.31296875,31.841730645271298L218.43345052083333,31.832311114435534L218.55393229166668,31.82665939593407L218.6744140625,31.823268364833154L218.91537760416668,64.91214283708173L219.03585937499997,51.674558429521745L219.15634114583335,77.45928051225852L219.27682291666665,59.202841034627845L219.75875,48.248977348049394L219.99971354166667,69.67665913610237L220.1201953125,54.533268208934174L220.24067708333334,45.44723365263324L220.48164062499998,39.99561291885267L220.72260416666666,36.72464047858435L220.96356770833333,34.762057014423334L221.20453125,33.584506935926726L221.32501302083332,32.87797688882879L221.44549479166668,32.45405886057004L221.68645833333335,32.19970804361477L221.80694010416667,32.0470975534416L221.927421875,31.955531259337725L222.04790364583334,31.900591482875363L222.16838541666667,31.867627616997957L222.28886718750002,37.57512202474424L222.52983072916666,87.45416412393747L222.6503125,123.10886211072612L223.0117578125,111.41077181189024L223.13223958333333,84.66464490531591L223.373203125,63.52605967046226L223.49368489583335,50.84290852955009L223.85513020833332,43.233017845002756L223.97561197916664,38.667083434274375L224.09609375,35.92752278783737L224.21657552083332,34.28378639997516L224.33705729166667,33.29754456725786L224.5780208333333,66.43307219490019L225.05994791666666,52.58711604421286L225.30091145833333,44.279542353800416L225.42139322916665,39.294998139553016L225.541875,36.30427161100455L225.9033203125,56.14619933023912L226.02380208333332,46.414992325416186L226.264765625,65.39444994070426L226.74669270833334,51.96394269169531L226.86717447916666,43.90563834228991L226.98765625000001,39.07065573264668L227.10813802083334,36.16966616686076L227.3491015625,34.429072427389194L227.83102864583336,33.38471618370628L227.95151041666668,32.75810243749651L228.19247395833335,32.38213418977061L228.31295572916665,32.156553241135114L228.4334375,32.02120467195382L228.55391927083332,31.93999553044504L228.7948828125,31.891270045539745L229.156328125,31.862034754596564L229.27680989583334,31.844493580030637L229.39729166666666,31.833968875291095L229.51777343749998,31.82765405244739L229.63825520833333,31.8238651587412L229.99970052083333,31.82159182251748L230.12018229166665,31.820227820783213L230.602109375,31.819409419742644L230.72259114583335,31.81891837911829L230.9635546875,31.818623754743722L231.08403645833334,31.818446980118935L231.20451822916667,31.818340915344116L231.6864453125,31.818277276479172L232.047890625,70.63642091134204L232.28885416666668,55.10912527407799L232.65029947916665,45.79274789171952L232.77078125000003,47.839285098668064L232.89126302083332,95.52175287738267L233.01174479166664,70.0403244537023L233.1322265625,57.93328558131231L233.37319010416667,47.487244076060115L233.493671875,41.21961917290879L233.6141536458333,37.459044231018005L233.97559895833334,57.47542653861081L234.09608072916666,47.212528650439246L234.33704427083333,41.054789917536276L234.45752604166665,47.54196485961266L234.5780078125,69.25245164304032L234.939453125,54.278743713096944L235.18041666666667,45.294518955130926L235.3008984375,40.540347736714914L235.42138020833335,37.051481369301676L235.54186197916667,34.958161548853745L236.385234375,33.702169656584964L236.50571614583333,32.94857452122372L236.86716145833336,35.67823562182515L237.4695703125,66.58875955491325L237.95149739583331,52.68052846022069L238.1924609375,58.33558980340515L238.43342447916666,47.72862660931582L238.67438802083333,41.36444869286225L238.79486979166666,37.54594194299007L238.9153515625,35.25483789306679L239.03583333333333,33.88017546311279L239.51776041666668,33.055378005140405L239.6382421875,32.560499530356985L239.75872395833335,32.263572445486915L239.9996875,32.08541619456488L240.12016927083334,31.978522444011645L240.24065104166667,31.91438619367972L240.722578125,31.875904443480575L240.96354166666669,31.85281539336107L241.20450520833333,31.83896196328939L241.44546875,31.83064990524636L241.56595052083335,31.82566267042056L241.80691406250003,31.82267032952507L242.28884114583332,31.820874924987812L242.5298046875,31.819797682265428L242.6502864583333,31.819151336631997L243.01173177083334,31.818763529251935L243.37317708333333,31.818530844823897L243.85510416666668,31.818391234167102L244.09606770833332,31.81830746777299L244.21654947916667,31.81825720793654L244.57799479166667,31.818227052034647L245.05992187500001,31.818208958493525L245.18040364583334,31.81819810236885L245.3008854166667,31.818191588694052L245.4213671875,31.818187680489153L245.7828125,31.818185335566206L245.90329427083336,31.81818392861245L246.02377604166668,31.81818308444018L246.26473958333335,31.818182577936877L246.38522135416665,31.818182274034854L246.505703125,31.818182091693647L246.74666666666667,31.81818198228893L246.8671484375,31.81818191664609L247.22859375,31.818181877260383L247.34907552083334,31.81818185362895L247.59003906249998,31.818181839450105L247.83100260416666,31.81818183094277L247.951484375,31.81818182583839L248.07196614583333,31.81818182277579L248.91533854166667,31.818181820938207L249.0358203125,31.818181819835655L249.15630208333334,31.81818181917414L249.27678385416667,31.818181818777227L249.99967447916669,31.818181818539067L250.12015625,31.818181818396187L250.24063802083333,31.818181818310467L250.36111979166668,31.818181818259L250.4816015625,31.818181818228126L250.72256510416665,31.818181818209574L251.08401041666664,31.81818181819846L251.44545572916667,31.818181818191814L251.92738281249999,31.81818181818783L252.04786458333334,31.818181818185444L252.16834635416666,31.818181818183984L252.288828125,31.81818181818313L252.40930989583333,31.818181818182627L252.6502734375,31.818181818182314L252.77075520833333,31.81818181818214L253.25268229166667,80.81818181818201L253.61412760416667,115.94545454545467L253.734609375,121.74909090909097L254.09605468750001,141.14036363636367L254.21653645833334,157.86603636363643L254.3370182291667,165.9923490909091L254.4575,157.50450036363637L254.57798177083333,163.8663365818182L254.8189453125,126.31980194909092L254.93942708333336,134.97369935127273L255.05990885416668,149.07512870167272L255.18039062499997,112.99053176645818L255.30087239583335,117.43068269623855L255.78279947916667,138.54931870865227L255.90328125,144.85686395246407L256.0237630208333,164.55048200784208L256.38520833333337,111.45756193197802L256.626171875,134.32908261373228L256.74665364583336,93.32472229551215L256.86713541666666,117.72210610458002L257.10809895833336,148.9059909354753L257.22858072916665,159.9799581976488L257.3490625,165.98797491858932L257.5900260416667,163.22914858751724L257.7105078125,110.66476187978307L258.071953125,79.12612985514257L258.31291666666664,60.202950640358274L258.55388020833334,75.57631583876044L258.67436197916663,58.073062230528976L258.91532552083333,53.93474642922649L259.27677083333333,45.08812058480863L259.517734375,39.78014507815793L259.6382161458333,36.595359774167505L259.7586979166667,34.684488591773246L259.9996614583333,33.53796588233672L260.240625,32.850052256674765L260.3611067708333,94.80094044491398L260.48158854166667,109.69874608513017L260.963515625,78.54652037835085L261.08399739583336,59.855184954283274L261.3249609375,48.6403836998427L261.56592447916665,41.911502947178356L262.1683333333333,37.87417449557974L262.65026041666664,35.4517774246206L262.7707421875,33.99833918204513L262.89122395833334,33.12627623649984L263.01170572916664,32.60303846917266L264.4574869791667,32.289095808776324L264.6984505208333,32.10073021253854L264.9394140625,31.98771085479587" style="fill: none;" fill="none"></path></g></g></g></g><g opacity="0.2"><g><g><g><path stroke="rgb(0, 119, 187)" stroke-width="2px" d="M25.783098958333333,308.6363636363636L25.903580729166666,92.27272727272728L26.144544270833336,238.63636363636365L30.481888020833335,235.45454545454547L30.602369791666668,175L30.7228515625,227.5L30.843333333333334,127.27272727272728L30.963815104166667,222.72727272727272L31.32526041666667,173.4090909090909L31.4457421875,31.81818181818181L31.68670572916667,31.81818181818181L31.92766927083333,31.81818181818181L32.04815104166667,31.81818181818181L32.1686328125,31.81818181818181L32.28911458333333,31.81818181818181L32.65055989583333,31.81818181818181L32.77104166666666,31.81818181818181L32.8915234375,31.81818181818181L33.012005208333335,90.68181818181819L33.25296875,31.81818181818181L33.6144140625,31.81818181818181L34.216822916666665,31.81818181818181L34.3373046875,60.45454545454545L34.45778645833334,31.81818181818181L34.57826822916667,39.77272727272727L34.69875,31.81818181818181L34.81923177083333,31.81818181818181L35.421640625,38.18181818181817L36.385494791666666,31.81818181818181L36.74694010416666,54.090909090909086L36.867421875,31.81818181818181L37.71079427083333,31.81818181818181L38.07223958333333,31.81818181818181L38.313203125,31.81818181818181L38.43368489583333,31.81818181818181L38.55416666666667,31.81818181818181L39.03609375,38.18181818181817L39.15657552083333,31.81818181818181L39.277057291666665,31.81818181818181L39.63850260416667,31.81818181818181L39.758984375000004,108.18181818181817L40.12042968750001,41.36363636363636L40.60235677083333,31.81818181818181L40.8433203125,31.81818181818181L41.08428385416667,89.09090909090908L41.20476562499999,89.09090909090908L41.32524739583333,106.5909090909091L41.445729166666666,39.77272727272727L41.92765625,98.63636363636365L42.16861979166667,31.81818181818181L42.53006510416667,81.13636363636364L42.650546874999996,31.81818181818181L42.77102864583333,31.81818181818181L43.0119921875,31.81818181818181L43.132473958333335,71.59090909090908L43.25295572916667,31.81818181818181L43.61440104166667,128.86363636363635L43.85536458333333,74.77272727272727L43.97584635416666,31.81818181818181L44.216809895833336,31.81818181818181L44.337291666666665,31.81818181818181L44.69873697916666,31.81818181818181L45.30114583333334,31.81818181818181L45.421627604166666,31.81818181818181L45.542109375,31.81818181818181L45.78307291666666,98.63636363636365L45.9035546875,124.0909090909091L46.144518229166664,87.5L46.38548177083334,125.6818181818182L46.50596354166667,149.54545454545453L46.6264453125,31.81818181818181L46.74692708333333,140L46.987890625,31.81818181818181L47.10837239583333,31.81818181818181L47.95174479166667,170.22727272727275L48.433671875,31.81818181818181L48.915598958333334,100.22727272727273L49.03608072916667,92.27272727272728L49.15656250000001,31.81818181818181L49.63848958333333,31.81818181818181L49.999934895833334,31.81818181818181L50.36138020833333,42.95454545454546L50.481861979166666,31.81818181818181L50.84330729166667,92.27272727272728L50.9637890625,31.81818181818181L51.20475260416667,31.81818181818181L51.325234375,31.81818181818181L51.44571614583333,31.81818181818181L51.686679687499996,31.81818181818181L51.80716145833333,87.5L52.048125,89.09090909090908L52.168606770833335,232.27272727272725L52.28908854166667,81.13636363636364L52.65053385416667,92.27272727272728L53.01197916666666,71.59090909090908L53.61438802083334,100.22727272727273L53.8553515625,130.45454545454547L54.09631510416666,31.81818181818181L54.216796875,124.0909090909091L54.81920572916666,31.81818181818181L55.180651041666664,68.4090909090909L55.3011328125,81.13636363636364L55.42161458333334,31.81818181818181L55.54209635416667,111.36363636363636L55.78305989583333,31.81818181818181L56.264986979166665,44.54545454545454L56.50595052083333,105L56.746914062500004,125.6818181818182L56.98787760416667,125.6818181818182L57.59028645833333,135.22727272727272L57.831250000000004,92.27272727272728L58.31317708333333,147.95454545454547L58.9155859375,165.45454545454544L59.15654947916667,147.95454545454547L59.27703124999999,159.0909090909091L59.638476562499996,125.6818181818182L59.87944010416667,143.18181818181816L59.999921875,154.3181818181818L60.120403645833335,152.72727272727275L60.3613671875,136.8181818181818L60.48184895833333,152.72727272727275L60.60233072916667,135.22727272727272L61.0842578125,140L61.204739583333335,160.6818181818182L61.445703125,152.72727272727275L61.8071484375,143.18181818181816L62.289075520833336,101.81818181818181L62.409557291666665,147.95454545454547L62.5300390625,159.0909090909091L62.65052083333334,120.9090909090909L62.891484375,149.54545454545453L63.2529296875,138.4090909090909L63.37341145833334,133.63636363636365L63.493893229166666,162.27272727272728L63.85533854166666,125.6818181818182L63.9758203125,125.6818181818182L64.21678385416666,127.27272727272728L64.93967447916667,105L65.18063802083333,116.13636363636363L65.54208333333332,89.09090909090908L65.66256510416666,117.72727272727273L65.90352864583333,152.72727272727275L66.02401041666667,157.5L66.62641927083332,143.18181818181816L66.74690104166666,149.54545454545453L66.98786458333333,146.36363636363637L67.228828125,146.36363636363637L67.34930989583333,155.9090909090909L67.46979166666667,119.31818181818183L67.83123697916666,119.31818181818183L67.95171875,138.4090909090909L68.3131640625,135.22727272727272L68.43364583333333,146.36363636363637L68.674609375,119.31818181818183L68.79509114583334,147.95454545454547L69.0360546875,149.54545454545453L69.51798177083333,159.0909090909091L69.63846354166667,146.36363636363637L69.7589453125,119.31818181818183L69.99990885416668,128.86363636363635L70.120390625,108.18181818181817L70.4818359375,127.27272727272728L70.60231770833333,140L70.72279947916667,133.63636363636365L70.84328125,160.6818181818182L71.08424479166666,136.8181818181818L71.2047265625,117.72727272727273L71.32520833333334,133.63636363636365L71.44569010416666,135.22727272727272L72.53002604166667,132.04545454545453L72.6505078125,122.49999999999999L72.89147135416667,109.77272727272727L73.25291666666668,116.13636363636363L74.09628906249999,140L74.21677083333333,100.22727272727273L74.69869791666667,154.3181818181818L74.8191796875,152.72727272727275L74.93966145833333,159.0909090909091L75.180625,138.4090909090909L75.42158854166667,146.36363636363637L75.903515625,128.86363636363635L76.9878515625,140L77.10833333333333,101.81818181818181L77.22881510416667,144.77272727272728L77.34929687500001,138.4090909090909L77.59026041666667,85.90909090909092L77.7107421875,125.6818181818182L78.0721875,89.09090909090908L78.4336328125,111.36363636363636L79.27700520833334,79.54545454545455L79.39748697916667,42.95454545454546L79.51796875000001,31.81818181818181L79.63845052083333,31.81818181818181L79.8794140625,98.63636363636365L79.99989583333334,89.09090909090908L80.12037760416668,146.36363636363637L80.36134114583332,135.22727272727272L80.48182291666666,132.04545454545453L80.6023046875,119.31818181818183L80.84326822916667,103.40909090909089L81.08423177083333,106.5909090909091L81.20471354166666,39.77272727272727L81.686640625,31.81818181818181L82.53001302083332,31.81818181818181L82.89145833333333,31.81818181818181L83.01194010416667,31.81818181818181L83.25290364583333,31.81818181818181L83.4938671875,31.81818181818181L83.8553125,31.81818181818181L85.18061197916666,31.81818181818181L85.54205729166667,31.81818181818181L85.6625390625,31.81818181818181L85.78302083333334,31.81818181818181L86.023984375,31.81818181818181L86.26494791666667,31.81818181818181L86.38542968750001,89.09090909090908L86.62639322916667,50.90909090909091L87.22880208333333,49.31818181818183L87.34928385416666,31.81818181818181L88.07217447916666,31.81818181818181L88.31313802083334,152.72727272727275L88.43361979166667,109.77272727272727L88.55410156250001,116.13636363636363L88.67458333333333,146.36363636363637L88.79506510416667,128.86363636363635L88.915546875,132.04545454545453L89.03602864583334,151.13636363636363L89.15651041666668,168.63636363636363L89.27699218750001,143.18181818181816L89.39747395833332,163.86363636363637L89.6384375,31.81818181818181L89.9998828125,152.72727272727275L90.12036458333333,147.95454545454547L90.24084635416666,31.81818181818181L90.48180989583334,31.81818181818181L90.96373697916667,31.81818181818181L91.20470052083334,31.81818181818181L91.44566406249999,31.81818181818181L91.92759114583333,31.81818181818181L92.04807291666667,31.81818181818181L92.16855468749999,31.81818181818181L92.40951822916666,31.81818181818181L92.65048177083334,31.81818181818181L92.8914453125,31.81818181818181L93.13240885416667,31.81818181818181L93.252890625,31.81818181818181L93.6143359375,31.81818181818181L93.85529947916666,31.81818181818181L93.97578125,31.81818181818181L94.09626302083333,31.81818181818181L94.21674479166666,31.81818181818181L94.33722656249999,31.81818181818181L94.45770833333333,31.81818181818181L94.698671875,31.81818181818181L94.81915364583334,31.81818181818181L95.42156250000001,31.81818181818181L95.54204427083334,31.81818181818181L95.7830078125,31.81818181818181L95.90348958333334,31.81818181818181L96.02397135416668,31.81818181818181L96.38541666666666,31.81818181818181L96.62638020833333,31.81818181818181L96.86734375,31.81818181818181L97.10830729166666,31.81818181818181L97.34927083333334,31.81818181818181L97.59023437500001,135.22727272727272L97.71071614583333,31.81818181818181L97.83119791666667,31.81818181818181L98.19264322916668,31.81818181818181L98.6745703125,31.81818181818181L98.79505208333333,31.81818181818181L99.036015625,31.81818181818181L99.15649739583333,31.81818181818181L99.3974609375,39.77272727272727L99.87938802083333,31.81818181818181L100.48179687499999,31.81818181818181L101.32516927083333,31.81818181818181L101.44565104166666,31.81818181818181L101.68661458333334,31.81818181818181L101.80709635416667,31.81818181818181L101.927578125,31.81818181818181L102.04805989583333,31.81818181818181L102.16854166666667,31.81818181818181L102.2890234375,31.81818181818181L102.52998697916667,31.81818181818181L102.65046875,31.81818181818181L103.13239583333333,31.81818181818181L103.25287760416666,31.81818181818181L103.49384114583333,31.81818181818181L103.7348046875,31.81818181818181L104.09625,31.81818181818181L104.33721354166667,31.81818181818181L104.45769531250001,31.81818181818181L104.57817708333334,31.81818181818181L104.93962239583334,31.81818181818181L105.06010416666668,31.81818181818181L105.1805859375,31.81818181818181L105.30106770833333,31.81818181818181L105.42154947916666,31.81818181818181L105.66251302083333,31.81818181818181L105.78299479166667,31.81818181818181L105.9034765625,31.81818181818181L106.14444010416666,31.81818181818181L106.264921875,31.81818181818181L106.38540364583334,31.81818181818181L106.50588541666667,140L106.62636718750001,120.9090909090909L106.74684895833333,114.54545454545455L106.9878125,31.81818181818181L107.10829427083334,31.81818181818181L107.46973958333332,31.81818181818181L107.95166666666667,31.81818181818181L108.31311197916666,89.09090909090908L108.43359375,31.81818181818181L108.55407552083334,31.81818181818181L108.7950390625,31.81818181818181L108.91552083333333,31.81818181818181L109.03600260416667,31.81818181818181L109.156484375,31.81818181818181L109.39744791666668,31.81818181818181L109.51792968749999,31.81818181818181L109.63841145833332,31.81818181818181L110.12033854166667,31.81818181818181L110.602265625,31.81818181818181L110.72274739583334,31.81818181818181L110.9637109375,31.81818181818181L111.08419270833333,31.81818181818181L111.20467447916667,141.5909090909091L111.32515625,31.81818181818181L111.44563802083334,36.59090909090909L111.56611979166667,108.18181818181817L111.92756510416666,31.81818181818181L112.048046875,105L112.7709375,31.81818181818181L113.01190104166666,31.81818181818181L113.1323828125,31.81818181818181L113.25286458333333,31.81818181818181L113.37334635416667,31.81818181818181L113.61430989583334,38.18181818181817L113.97575520833334,31.81818181818181L114.09623697916668,62.04545454545454L114.45768229166666,31.81818181818181L114.5781640625,100.22727272727273L114.69864583333333,31.81818181818181L114.939609375,31.81818181818181L115.18057291666666,31.81818181818181L115.54201822916667,31.81818181818181L115.66250000000001,31.81818181818181L115.90346354166667,31.81818181818181L116.26490885416668,31.81818181818181L116.38539062500001,31.81818181818181L116.50587239583332,31.81818181818181L116.7468359375,31.81818181818181L116.86731770833333,31.81818181818181L116.98779947916667,31.81818181818181L117.22876302083333,31.81818181818181L117.34924479166666,31.81818181818181L117.4697265625,31.81818181818181L118.07213541666667,31.81818181818181L118.55406249999999,31.81818181818181L118.67454427083332,31.81818181818181L118.9155078125,31.81818181818181L119.15647135416667,31.81818181818181L119.39743489583333,31.81818181818181L119.51791666666666,31.81818181818181L119.6383984375,31.81818181818181L119.75888020833334,31.81818181818181L119.87936197916667,31.81818181818181L119.99984375,31.81818181818181L120.24080729166667,31.81818181818181L120.48177083333334,31.81818181818181L120.722734375,31.81818181818181L121.0841796875,31.81818181818181L121.32514322916666,31.81818181818181L121.44562499999999,31.81818181818181L121.56610677083333,31.81818181818181L122.04803385416666,31.81818181818181L122.28899739583333,31.81818181818181L122.40947916666667,31.81818181818181L122.65044270833334,31.81818181818181L123.01188802083334,31.81818181818181L123.2528515625,31.81818181818181L123.37333333333333,31.81818181818181L123.49381510416666,31.81818181818181L123.85526041666667,31.81818181818181L124.21670572916666,31.81818181818181L124.3371875,31.81818181818181L124.57815104166667,31.81818181818181L124.81911458333333,31.81818181818181L125.060078125,31.81818181818181L125.66248697916666,68.4090909090909L125.90345052083333,31.81818181818181L126.02393229166667,31.81818181818181L126.1444140625,31.81818181818181L126.26489583333333,31.81818181818181L126.62634114583334,31.81818181818181L127.34923177083334,31.81818181818181L127.59019531249999,31.81818181818181L127.71067708333332,31.81818181818181L127.83115885416666,31.81818181818181L127.951640625,31.81818181818181L128.07212239583333,31.81818181818181L128.55404947916668,31.81818181818181L128.79501302083335,31.81818181818181L128.91549479166667,31.81818181818181L129.27694010416667,31.81818181818181L129.397421875,31.81818181818181L129.51790364583334,31.81818181818181L129.63838541666667,31.81818181818181L129.7588671875,31.81818181818181L129.99983072916666,31.81818181818181L130.1203125,31.81818181818181L130.24079427083333,108.18181818181817L130.36127604166666,31.81818181818181L130.60223958333333,31.81818181818181L130.96368489583335,31.81818181818181L131.2046484375,31.81818181818181L131.32513020833332,31.81818181818181L131.56609375,31.81818181818181L131.68657552083334,175L132.04802083333334,31.81818181818181L132.16850260416666,31.81818181818181L132.40946614583333,159.0909090909091L132.52994791666666,31.81818181818181L133.3733203125,31.81818181818181L133.49380208333332,31.81818181818181L133.61428385416667,31.81818181818181L133.734765625,31.81818181818181L133.85524739583332,31.81818181818181L133.97572916666667,31.81818181818181L134.0962109375,31.81818181818181L134.33717447916666,31.81818181818181L134.45765625,31.81818181818181L134.57813802083334,31.81818181818181L134.93958333333333,31.81818181818181L135.06006510416668,31.81818181818181L135.180546875,31.81818181818181L135.30102864583333,31.81818181818181L135.5419921875,31.81818181818181L136.2648828125,31.81818181818181L136.38536458333334,31.81818181818181L136.50584635416666,31.81818181818181L136.74680989583334,31.81818181818181L137.22873697916668,31.81818181818181L137.59018229166668,31.81818181818181L137.95162760416667,31.81818181818181L138.4335546875,31.81818181818181L138.795,31.81818181818181L138.91548177083334,31.81818181818181L139.03596354166666,31.81818181818181L139.27692708333333,31.81818181818181L139.39740885416666,31.81818181818181L139.517890625,31.81818181818181L139.8793359375,31.81818181818181L139.99981770833335,31.81818181818181L140.24078125,31.81818181818181L140.48174479166667,31.81818181818181L140.6022265625,31.81818181818181L140.84319010416667,31.81818181818181L141.08415364583334,31.81818181818181L141.20463541666666,31.81818181818181L141.44559895833333,31.81818181818181L141.6865625,31.81818181818181L141.80704427083333,31.81818181818181L141.92752604166668,31.81818181818181L142.0480078125,31.81818181818181L142.409453125,31.81818181818181L142.52993489583332,31.81818181818181L142.65041666666667,85.90909090909092L143.01186197916667,31.81818181818181L143.13234375,31.81818181818181L144.09619791666668,31.81818181818181L144.45764322916668,31.81818181818181L144.578125,136.8181818181818L144.81908854166667,31.81818181818181L145.06005208333335,31.81818181818181L145.18053385416667,31.81818181818181L145.54197916666666,31.81818181818181L145.66246093750001,31.81818181818181L145.9034244791667,31.81818181818181L146.02390625,31.81818181818181L146.14438802083333,31.81818181818181L146.26486979166668,31.81818181818181L146.62631510416668,31.81818181818181L147.59016927083331,31.81818181818181L147.71065104166667,31.81818181818181L147.8311328125,31.81818181818181L148.07209635416666,31.81818181818181L148.31305989583333,31.81818181818181L148.43354166666666,31.81818181818181L148.5540234375,31.81818181818181L148.79498697916665,31.81818181818181L149.03595052083332,31.81818181818181L149.15643229166668,31.81818181818181L149.2769140625,31.81818181818181L149.638359375,152.72727272727275L149.75884114583334,31.81818181818181L149.87932291666667,154.3181818181818L150.48173177083333,141.5909090909091L150.7226953125,31.81818181818181L150.84317708333333,31.81818181818181L151.084140625,82.72727272727273L151.20462239583335,31.81818181818181L151.44558593750003,31.81818181818181L152.1684765625,31.81818181818181L152.2889583333333,31.81818181818181L152.52992187499999,31.81818181818181L152.77088541666666,49.31818181818183L153.2528125,31.81818181818181L153.49377604166668,31.81818181818181L153.73473958333332,31.81818181818181L153.975703125,31.81818181818181L154.21666666666667,31.81818181818181L154.45763020833334,31.81818181818181L154.57811197916666,31.81818181818181L154.69859375000001,31.81818181818181L154.81907552083334,31.81818181818181L154.9395572916667,31.81818181818181L155.421484375,31.81818181818181L155.66244791666668,31.81818181818181L155.78292968749997,31.81818181818181L156.5058203125,31.81818181818181L156.74678385416667,31.81818181818181L156.98774739583334,31.81818181818181L157.10822916666666,31.81818181818181L157.22871093749998,31.81818181818181L157.9516015625,31.81818181818181L158.313046875,31.81818181818181L158.55401041666667,31.81818181818181L158.91545572916667,31.81818181818181L159.27690104166666,31.81818181818181L159.3973828125,31.81818181818181L159.63834635416669,31.81818181818181L159.758828125,31.81818181818181L159.87930989583333,31.81818181818181L159.99979166666668,31.81818181818181L160.24075520833335,31.81818181818181L160.36123697916665,92.27272727272728L160.60220052083332,76.36363636363637L160.72268229166664,33.409090909090914L160.8431640625,31.81818181818181L161.204609375,31.81818181818181L161.3250911458333,31.81818181818181L161.56605468749999,31.81818181818181L162.52990885416668,31.81818181818181L162.650390625,31.81818181818181L162.77087239583332,31.81818181818181L162.89135416666667,31.81818181818181L163.25279947916667,31.81818181818181L163.37328125,31.81818181818181L163.49376302083334,31.81818181818181L163.85520833333334,31.81818181818181L163.9756901041667,31.81818181818181L164.096171875,31.81818181818181L164.4576171875,31.81818181818181L165.9033984375,31.81818181818181L166.26484374999998,31.81818181818181L166.50580729166666,31.81818181818181L166.6262890625,31.81818181818181L166.86725260416665,31.81818181818181L166.987734375,31.81818181818181L167.3491796875,31.81818181818181L167.710625,31.81818181818181L167.83110677083334,31.81818181818181L167.95158854166667,31.81818181818181L168.07207031250002,31.81818181818181L168.19255208333334,31.81818181818181L168.31303385416666,31.81818181818181L168.433515625,31.81818181818181L168.55399739583333,31.81818181818181L168.7949609375,31.81818181818181L169.03592447916668,31.81818181818181L169.15640625,31.81818181818181L169.39736979166665,31.81818181818181L169.63833333333332,31.81818181818181L169.879296875,31.81818181818181L169.99977864583332,31.81818181818181L170.12026041666667,31.81818181818181L170.2407421875,31.81818181818181L170.3612239583333,31.81818181818181L170.48170572916666,31.81818181818181L170.9636328125,31.81818181818181L171.56604166666668,31.81818181818181L171.6865234375,31.81818181818181L171.92748697916667,31.81818181818181L172.04796875,31.81818181818181L172.52989583333334,31.81818181818181L172.65037760416666,31.81818181818181L172.77085937500001,31.81818181818181L173.0118229166667,31.81818181818181L173.37326822916668,31.81818181818181L173.73471354166668,31.81818181818181L173.97567708333335,31.81818181818181L174.216640625,31.81818181818181L174.33712239583332,31.81818181818181L174.5780859375,31.81818181818181L174.69856770833331,31.81818181818181L175.06001302083334,31.81818181818181L175.18049479166666,31.81818181818181L175.30097656249998,31.81818181818181L175.54194010416666,31.81818181818181L175.662421875,31.81818181818181L175.78290364583333,31.81818181818181L176.0238671875,31.81818181818181L176.14434895833332,31.81818181818181L176.26483072916668,31.81818181818181L176.3853125,31.81818181818181L176.50579427083335,31.81818181818181L176.62627604166667,31.81818181818181L177.22868489583334,31.81818181818181L177.34916666666666,31.81818181818181L177.59013020833333,31.81818181818181L178.07205729166668,31.81818181818181L178.1925390625,31.81818181818181L178.43350260416665,31.81818181818181L178.9154296875,31.81818181818181L179.15639322916667,31.81818181818181L179.3973567708333,31.81818181818181L179.63832031249999,31.81818181818181L179.75880208333334,31.81818181818181L179.87928385416666,31.81818181818181L179.999765625,31.81818181818181L180.24072916666665,31.81818181818181L180.60217447916668,31.81818181818181L180.72265625,31.81818181818181L180.96361979166667,31.81818181818181L181.0841015625,31.81818181818181L181.20458333333335,31.81818181818181L181.445546875,31.81818181818181L181.92747395833334,31.81818181818181L182.1684375,31.81818181818181L182.28891927083333,31.81818181818181L182.5298828125,31.81818181818181L182.65036458333336,31.81818181818181L183.01180989583335,31.81818181818181L183.13229166666665,31.81818181818181L183.73470052083331,31.81818181818181L183.85518229166667,31.81818181818181L183.9756640625,31.81818181818181L184.09614583333334,31.81818181818181L184.33710937499998,31.81818181818181L184.57807291666666,52.50000000000001L184.6985546875,97.04545454545455L184.81903645833333,31.81818181818181L184.93951822916665,31.81818181818181L185.06,36.59090909090909L185.18048177083332,31.81818181818181L185.54192708333335,31.81818181818181L185.90337239583334,31.81818181818181L186.14433593750002,31.81818181818181L186.38529947916666,31.81818181818181L186.50578125,31.81818181818181L186.62626302083333,31.81818181818181L186.74674479166669,31.81818181818181L186.8672265625,31.81818181818181L187.34915364583335,31.81818181818181L187.83108072916664,31.81818181818181L188.07204427083332,31.81818181818181L188.19252604166667,31.81818181818181L188.55397135416666,31.81818181818181L188.67445312499999,31.81818181818181L188.79493489583334,31.81818181818181L189.15638020833333,31.81818181818181L189.51782552083333,31.81818181818181L189.63830729166668,105L189.7587890625,31.81818181818181L189.99975260416667,31.81818181818181L190.120234375,31.81818181818181L190.24071614583335,31.81818181818181L190.60216145833334,31.81818181818181L190.84312500000001,31.81818181818181L190.96360677083334,31.81818181818181L191.0840885416667,31.81818181818181L191.2045703125,31.81818181818181L191.32505208333333,31.81818181818181L191.44553385416668,31.81818181818181L191.68649739583336,31.81818181818181L191.80697916666668,31.81818181818181L192.16842447916665,31.81818181818181L192.77083333333331,31.81818181818181L194.21661458333332,31.81818181818181L194.33709635416668,31.81818181818181L194.457578125,31.81818181818181L194.57805989583335,31.81818181818181L195.05998697916667,31.81818181818181L195.42143229166666,31.81818181818181L195.5419140625,31.81818181818181L195.78287760416669,31.81818181818181L195.903359375,34.99999999999999L196.02384114583333,31.81818181818181L196.14432291666668,31.81818181818181L196.38528645833335,31.81818181818181L196.62625000000003,31.81818181818181L196.74673177083332,31.81818181818181L196.86721354166664,31.81818181818181L197.10817708333332,31.81818181818181L197.22865885416667,31.81818181818181L197.349140625,31.81818181818181L197.59010416666666,31.81818181818181L197.83106770833334,31.81818181818181L198.55395833333333,31.81818181818181L198.794921875,31.81818181818181L199.39733072916667,31.81818181818181L199.5178125,31.81818181818181L199.99973958333334,31.81818181818181L200.6021484375,31.81818181818181L200.72263020833336,31.81818181818181L201.20455729166665,31.81818181818181L201.686484375,31.81818181818181L202.0479296875,31.81818181818181L202.40937499999998,31.81818181818181L202.52985677083333,31.81818181818181L202.65033854166666,31.81818181818181L203.01178385416665,31.81818181818181L203.132265625,31.81818181818181L203.4937109375,31.81818181818181L203.73467447916667,31.81818181818181L203.85515625,31.81818181818181L203.97563802083334,31.81818181818181L204.81901041666669,31.81818181818181L204.9394921875,31.81818181818181L205.05997395833333,31.81818181818181L205.18045572916668,31.81818181818181L205.42141927083335,31.81818181818181L205.54190104166665,31.81818181818181L205.66238281250003,31.81818181818181L205.78286458333332,31.81818181818181L205.90334635416664,31.81818181818181L206.023828125,31.81818181818181L206.14430989583332,31.81818181818181L206.26479166666667,31.81818181818181L206.3852734375,31.81818181818181L206.74671874999999,31.81818181818181L206.98768229166666,31.81818181818181L207.59009114583333,31.81818181818181L207.71057291666668,31.81818181818181L207.8310546875,31.81818181818181L208.07201822916667,31.81818181818181L208.91539062500001,31.81818181818181L209.1563541666667,31.81818181818181L209.75876302083336,31.81818181818181L209.87924479166668,31.81818181818181L210.361171875,31.81818181818181L210.60213541666667,31.81818181818181L210.7226171875,31.81818181818181L210.96358072916667,31.81818181818181L211.0840625,31.81818181818181L211.32502604166666,31.81818181818181L211.44550781249998,31.81818181818181L212.1683984375,31.81818181818181L212.28888020833332,31.81818181818181L212.40936197916668,31.81818181818181L213.01177083333334,31.81818181818181L213.13225260416667,31.81818181818181L214.21658854166668,31.81818181818181L214.3370703125,31.81818181818181L214.69851562500003,31.81818181818181L214.81899739583332,31.81818181818181L214.93947916666664,31.81818181818181L215.18044270833332,31.81818181818181L215.42140625,31.81818181818181L215.66236979166666,58.86363636363635L216.02381510416666,31.81818181818181L216.144296875,31.81818181818181L216.38526041666665,31.81818181818181L216.5057421875,31.81818181818181L216.74670572916668,31.81818181818181L216.98766927083332,31.81818181818181L217.10815104166667,31.81818181818181L217.34911458333335,31.81818181818181L217.46959635416667,31.81818181818181L217.95152343750001,31.81818181818181L218.07200520833334,31.81818181818181L218.31296875,31.81818181818181L218.43345052083333,31.81818181818181L218.55393229166668,31.81818181818181L218.6744140625,31.81818181818181L218.91537760416668,114.54545454545455L219.03585937499997,31.81818181818181L219.15634114583335,116.13636363636363L219.27682291666665,31.81818181818181L219.75875,31.81818181818181L219.99971354166667,101.81818181818181L220.1201953125,31.81818181818181L220.24067708333334,31.81818181818181L220.48164062499998,31.81818181818181L220.72260416666666,31.81818181818181L220.96356770833333,31.81818181818181L221.20453125,31.81818181818181L221.32501302083332,31.81818181818181L221.44549479166668,31.81818181818181L221.68645833333335,31.81818181818181L221.80694010416667,31.81818181818181L221.927421875,31.81818181818181L222.04790364583334,31.81818181818181L222.16838541666667,31.81818181818181L222.28886718750002,46.13636363636364L222.52983072916666,162.27272727272728L222.6503125,176.5909090909091L223.0117578125,93.86363636363636L223.13223958333333,44.54545454545454L223.373203125,31.81818181818181L223.49368489583335,31.81818181818181L223.85513020833332,31.81818181818181L223.97561197916664,31.81818181818181L224.09609375,31.81818181818181L224.21657552083332,31.81818181818181L224.33705729166667,31.81818181818181L224.5780208333333,116.13636363636363L225.05994791666666,31.81818181818181L225.30091145833333,31.81818181818181L225.42139322916665,31.81818181818181L225.541875,31.81818181818181L225.9033203125,85.90909090909092L226.02380208333332,31.81818181818181L226.264765625,93.86363636363636L226.74669270833334,31.81818181818181L226.86717447916666,31.81818181818181L226.98765625000001,31.81818181818181L227.10813802083334,31.81818181818181L227.3491015625,31.81818181818181L227.83102864583336,31.81818181818181L227.95151041666668,31.81818181818181L228.19247395833335,31.81818181818181L228.31295572916665,31.81818181818181L228.4334375,31.81818181818181L228.55391927083332,31.81818181818181L228.7948828125,31.81818181818181L229.156328125,31.81818181818181L229.27680989583334,31.81818181818181L229.39729166666666,31.81818181818181L229.51777343749998,31.81818181818181L229.63825520833333,31.81818181818181L229.99970052083333,31.81818181818181L230.12018229166665,31.81818181818181L230.602109375,31.81818181818181L230.72259114583335,31.81818181818181L230.9635546875,31.81818181818181L231.08403645833334,31.81818181818181L231.20451822916667,31.81818181818181L231.6864453125,31.81818181818181L232.047890625,128.86363636363635L232.28885416666668,31.81818181818181L232.65029947916665,31.81818181818181L232.77078125000003,50.90909090909091L232.89126302083332,167.04545454545456L233.01174479166664,31.81818181818181L233.1322265625,39.77272727272727L233.37319010416667,31.81818181818181L233.493671875,31.81818181818181L233.6141536458333,31.81818181818181L233.97559895833334,87.5L234.09608072916666,31.81818181818181L234.33704427083333,31.81818181818181L234.45752604166665,57.27272727272727L234.5780078125,101.81818181818181L234.939453125,31.81818181818181L235.18041666666667,31.81818181818181L235.3008984375,33.409090909090914L235.42138020833335,31.81818181818181L235.54186197916667,31.81818181818181L236.385234375,31.81818181818181L236.50571614583333,31.81818181818181L236.86716145833336,39.77272727272727L237.4695703125,112.95454545454547L237.95149739583331,31.81818181818181L238.1924609375,66.81818181818183L238.43342447916666,31.81818181818181L238.67438802083333,31.81818181818181L238.79486979166666,31.81818181818181L238.9153515625,31.81818181818181L239.03583333333333,31.81818181818181L239.51776041666668,31.81818181818181L239.6382421875,31.81818181818181L239.75872395833335,31.81818181818181L239.9996875,31.81818181818181L240.12016927083334,31.81818181818181L240.24065104166667,31.81818181818181L240.722578125,31.81818181818181L240.96354166666669,31.81818181818181L241.20450520833333,31.81818181818181L241.44546875,31.81818181818181L241.56595052083335,31.81818181818181L241.80691406250003,31.81818181818181L242.28884114583332,31.81818181818181L242.5298046875,31.81818181818181L242.6502864583333,31.81818181818181L243.01173177083334,31.81818181818181L243.37317708333333,31.81818181818181L243.85510416666668,31.81818181818181L244.09606770833332,31.81818181818181L244.21654947916667,31.81818181818181L244.57799479166667,31.81818181818181L245.05992187500001,31.81818181818181L245.18040364583334,31.81818181818181L245.3008854166667,31.81818181818181L245.4213671875,31.81818181818181L245.7828125,31.81818181818181L245.90329427083336,31.81818181818181L246.02377604166668,31.81818181818181L246.26473958333335,31.81818181818181L246.38522135416665,31.81818181818181L246.505703125,31.81818181818181L246.74666666666667,31.81818181818181L246.8671484375,31.81818181818181L247.22859375,31.81818181818181L247.34907552083334,31.81818181818181L247.59003906249998,31.81818181818181L247.83100260416666,31.81818181818181L247.951484375,31.81818181818181L248.07196614583333,31.81818181818181L248.91533854166667,31.81818181818181L249.0358203125,31.81818181818181L249.15630208333334,31.81818181818181L249.27678385416667,31.81818181818181L249.99967447916669,31.81818181818181L250.12015625,31.81818181818181L250.24063802083333,31.81818181818181L250.36111979166668,31.81818181818181L250.4816015625,31.81818181818181L250.72256510416665,31.81818181818181L251.08401041666664,31.81818181818181L251.44545572916667,31.81818181818181L251.92738281249999,31.81818181818181L252.04786458333334,31.81818181818181L252.16834635416666,31.81818181818181L252.288828125,31.81818181818181L252.40930989583333,31.81818181818181L252.6502734375,31.81818181818181L252.77075520833333,31.81818181818181L253.25268229166667,154.3181818181818L253.61412760416667,168.63636363636363L253.734609375,130.45454545454547L254.09605468750001,170.22727272727275L254.21653645833334,182.95454545454544L254.3370182291667,178.18181818181816L254.4575,144.77272727272728L254.57798177083333,173.4090909090909L254.8189453125,70L254.93942708333336,147.95454545454547L255.05990885416668,170.22727272727275L255.18039062499997,58.86363636363635L255.30087239583335,124.0909090909091L255.78279947916667,170.22727272727275L255.90328125,154.3181818181818L256.0237630208333,194.0909090909091L256.38520833333337,31.81818181818181L256.626171875,168.63636363636363L256.74665364583336,31.81818181818181L256.86713541666666,154.3181818181818L257.10809895833336,195.6818181818182L257.22858072916665,176.5909090909091L257.3490625,175L257.5900260416667,159.0909090909091L257.7105078125,31.81818181818181L258.071953125,31.81818181818181L258.31291666666664,31.81818181818181L258.55388020833334,98.63636363636365L258.67436197916663,31.81818181818181L258.91532552083333,47.72727272727273L259.27677083333333,31.81818181818181L259.517734375,31.81818181818181L259.6382161458333,31.81818181818181L259.7586979166667,31.81818181818181L259.9996614583333,31.81818181818181L260.240625,31.81818181818181L260.3611067708333,187.72727272727272L260.48158854166667,132.04545454545453L260.963515625,31.81818181818181L261.08399739583336,31.81818181818181L261.3249609375,31.81818181818181L261.56592447916665,31.81818181818181L262.1683333333333,31.81818181818181L262.65026041666664,31.81818181818181L262.7707421875,31.81818181818181L262.89122395833334,31.81818181818181L263.01170572916664,31.81818181818181L264.4574869791667,31.81818181818181L264.6984505208333,31.81818181818181L264.9394140625,31.81818181818181" style="fill: none;" fill="none"></path></g></g></g></g></g></g><g transform="translate(40, 175)" clip-path="url(#clip_1)"><clipPath id="clip_1"><rect width="289" height="25"></rect></clipPath><g><g><line x1="0" y1="0" x2="0" y2="5" style="visibility: inherit;" fill="rgb(0, 0, 0)" stroke="rgb(204, 204, 204)" stroke-width="1px"></line><line x1="24.096354166666664" y1="0" x2="24.096354166666664" y2="5" style="visibility: inherit;" fill="rgb(0, 0, 0)" stroke="rgb(204, 204, 204)" stroke-width="1px"></line><line x1="48.19270833333333" y1="0" x2="48.19270833333333" y2="5" style="visibility: inherit;" fill="rgb(0, 0, 0)" stroke="rgb(204, 204, 204)" stroke-width="1px"></line><line x1="72.2890625" y1="0" x2="72.2890625" y2="5" style="visibility: inherit;" fill="rgb(0, 0, 0)" stroke="rgb(204, 204, 204)" stroke-width="1px"></line><line x1="96.38541666666666" y1="0" x2="96.38541666666666" y2="5" style="visibility: inherit;" fill="rgb(0, 0, 0)" stroke="rgb(204, 204, 204)" stroke-width="1px"></line><line x1="120.48177083333334" y1="0" x2="120.48177083333334" y2="5" style="visibility: inherit;" fill="rgb(0, 0, 0)" stroke="rgb(204, 204, 204)" stroke-width="1px"></line><line x1="144.578125" y1="0" x2="144.578125" y2="5" style="visibility: inherit;" fill="rgb(0, 0, 0)" stroke="rgb(204, 204, 204)" stroke-width="1px"></line><line x1="168.67447916666669" y1="0" x2="168.67447916666669" y2="5" style="visibility: inherit;" fill="rgb(0, 0, 0)" stroke="rgb(204, 204, 204)" stroke-width="1px"></line><line x1="192.77083333333331" y1="0" x2="192.77083333333331" y2="5" style="visibility: inherit;" fill="rgb(0, 0, 0)" stroke="rgb(204, 204, 204)" stroke-width="1px"></line><line x1="216.8671875" y1="0" x2="216.8671875" y2="5" style="visibility: inherit;" fill="rgb(0, 0, 0)" stroke="rgb(204, 204, 204)" stroke-width="1px"></line><line x1="240.96354166666669" y1="0" x2="240.96354166666669" y2="5" style="visibility: inherit;" fill="rgb(0, 0, 0)" stroke="rgb(204, 204, 204)" stroke-width="1px"></line><line x1="265.0598958333333" y1="0" x2="265.0598958333333" y2="5" style="visibility: inherit;" fill="rgb(0, 0, 0)" stroke="rgb(204, 204, 204)" stroke-width="1px"></line><line x1="289.15625" y1="0" x2="289.15625" y2="5" style="visibility: inherit;" fill="rgb(0, 0, 0)" stroke="rgb(204, 204, 204)" stroke-width="1px"></line></g><g transform="translate(0, 8)"><text x="0" y="0" dx="0em" dy="0.95em" style="text-anchor: middle; visibility: hidden; font-family: Roboto, sans-serif; font-size: 12px; font-weight: 200;" fill="rgb(50, 49, 63)" stroke="none" stroke-width="1px">-200</text><text x="24.096354166666664" y="0" dx="0em" dy="0.95em" style="text-anchor: middle; visibility: inherit; font-family: Roboto, sans-serif; font-size: 12px; font-weight: 200;" fill="rgb(50, 49, 63)" stroke="none" stroke-width="1px">0</text><text x="48.19270833333333" y="0" dx="0em" dy="0.95em" style="text-anchor: middle; visibility: hidden; font-family: Roboto, sans-serif; font-size: 12px; font-weight: 200;" fill="rgb(50, 49, 63)" stroke="none" stroke-width="1px">200</text><text x="72.2890625" y="0" dx="0em" dy="0.95em" style="text-anchor: middle; visibility: inherit; font-family: Roboto, sans-serif; font-size: 12px; font-weight: 200;" fill="rgb(50, 49, 63)" stroke="none" stroke-width="1px">400</text><text x="96.38541666666666" y="0" dx="0em" dy="0.95em" style="text-anchor: middle; visibility: hidden; font-family: Roboto, sans-serif; font-size: 12px; font-weight: 200;" fill="rgb(50, 49, 63)" stroke="none" stroke-width="1px">600</text><text x="120.48177083333334" y="0" dx="0em" dy="0.95em" style="text-anchor: middle; visibility: inherit; font-family: Roboto, sans-serif; font-size: 12px; font-weight: 200;" fill="rgb(50, 49, 63)" stroke="none" stroke-width="1px">800</text><text x="144.578125" y="0" dx="0em" dy="0.95em" style="text-anchor: middle; visibility: hidden; font-family: Roboto, sans-serif; font-size: 12px; font-weight: 200;" fill="rgb(50, 49, 63)" stroke="none" stroke-width="1px">1k</text><text x="168.67447916666669" y="0" dx="0em" dy="0.95em" style="text-anchor: middle; visibility: inherit; font-family: Roboto, sans-serif; font-size: 12px; font-weight: 200;" fill="rgb(50, 49, 63)" stroke="none" stroke-width="1px">1.2k</text><text x="192.77083333333331" y="0" dx="0em" dy="0.95em" style="text-anchor: middle; visibility: hidden; font-family: Roboto, sans-serif; font-size: 12px; font-weight: 200;" fill="rgb(50, 49, 63)" stroke="none" stroke-width="1px">1.4k</text><text x="216.8671875" y="0" dx="0em" dy="0.95em" style="text-anchor: middle; visibility: inherit; font-family: Roboto, sans-serif; font-size: 12px; font-weight: 200;" fill="rgb(50, 49, 63)" stroke="none" stroke-width="1px">1.6k</text><text x="240.96354166666669" y="0" dx="0em" dy="0.95em" style="text-anchor: middle; visibility: hidden; font-family: Roboto, sans-serif; font-size: 12px; font-weight: 200;" fill="rgb(50, 49, 63)" stroke="none" stroke-width="1px">1.8k</text><text x="265.0598958333333" y="0" dx="0em" dy="0.95em" style="text-anchor: middle; visibility: inherit; font-family: Roboto, sans-serif; font-size: 12px; font-weight: 200;" fill="rgb(50, 49, 63)" stroke="none" stroke-width="1px">2k</text><text x="289.15625" y="0" dx="0em" dy="0.95em" style="text-anchor: middle; visibility: hidden; font-family: Roboto, sans-serif; font-size: 12px; font-weight: 200;" fill="rgb(50, 49, 63)" stroke="none" stroke-width="1px">2.2k</text></g><line x1="0" y1="0" x2="289.15625" y2="0" fill="rgb(0, 0, 0)" stroke="rgb(204, 204, 204)" stroke-width="1px"></line></g></g></g></g></svg>