<svg viewBox="0 0 330 200" xmlns="http://www.w3.org/2000/svg"><g><g><g><g><g><line x1="51.125" y1="175" x2="46.125" y2="175" style="visibility: inherit;" fill="rgb(0, 0, 0)" stroke="rgb(204, 204, 204)" stroke-width="1px"></line><line x1="51.125" y1="161.53846153846155" x2="46.125" y2="161.53846153846155" style="visibility: inherit;" fill="rgb(0, 0, 0)" stroke="rgb(204, 204, 204)" stroke-width="1px"></line><line x1="51.125" y1="148.07692307692307" x2="46.125" y2="148.07692307692307" style="visibility: inherit;" fill="rgb(0, 0, 0)" stroke="rgb(204, 204, 204)" stroke-width="1px"></line><line x1="51.125" y1="134.6153846153846" x2="46.125" y2="134.6153846153846" style="visibility: inherit;" fill="rgb(0, 0, 0)" stroke="rgb(204, 204, 204)" stroke-width="1px"></line><line x1="51.125" y1="121.15384615384615" x2="46.125" y2="121.15384615384615" style="visibility: inherit;" fill="rgb(0, 0, 0)" stroke="rgb(204, 204, 204)" stroke-width="1px"></line><line x1="51.125" y1="107.6923076923077" x2="46.125" y2="107.6923076923077" style="visibility: inherit;" fill="rgb(0, 0, 0)" stroke="rgb(204, 204, 204)" stroke-width="1px"></line><line x1="51.125" y1="94.23076923076923" x2="46.125" y2="94.23076923076923" style="visibility: inherit;" fill="rgb(0, 0, 0)" stroke="rgb(204, 204, 204)" stroke-width="1px"></line><line x1="51.125" y1="80.76923076923077" x2="46.125" y2="80.76923076923077" style="visibility: inherit;" fill="rgb(0, 0, 0)" stroke="rgb(204, 204, 204)" stroke-width="1px"></line><line x1="51.125" y1="67.3076923076923" x2="46.125" y2="67.3076923076923" style="visibility: inherit;" fill="rgb(0, 0, 0)" stroke="rgb(204, 204, 204)" stroke-width="1px"></line><line x1="51.125" y1="53.84615384615385" x2="46.125" y2="53.84615384615385" style="visibility: inherit;" fill="rgb(0, 0, 0)" stroke="rgb(204, 204, 204)" stroke-width="1px"></line><line x1="51.125" y1="40.38461538461538" x2="46.125" y2="40.38461538461538" style="visibility: inherit;" fill="rgb(0, 0, 0)" stroke="rgb(204, 204, 204)" stroke-width="1px"></line><line x1="51.125" y1="26.923076923076923" x2="46.125" y2="26.923076923076923" style="visibility: inherit;" fill="rgb(0, 0, 0)" stroke="rgb(204, 204, 204)" stroke-width="1px"></line><line x1="51.125" y1="13.461538461538453" x2="46.125" y2="13.461538461538453" style="visibility: inherit;" fill="rgb(0, 0, 0)" stroke="rgb(204, 204, 204)" stroke-width="1px"></line><line x1="51.125" y1="0" x2="46.125" y2="0" style="visibility: inherit;" fill="rgb(0, 0, 0)" stroke="rgb(204, 204, 204)" stroke-width="1px"></line></g><g transform="translate(41.125, 0)"><text x="0" y="175" dx="0em" dy="0.3em" style="text-anchor: end; visibility: hidden; font-family: Roboto, sans-serif; font-size: 12px; font-weight: 200;" fill="rgb(50, 49, 63)" stroke="none" stroke-width="1px">-220</text><text x="0" y="161.53846153846155" dx="0em" dy="0.3em" style="text-anchor: end; visibility: inherit; font-family: Roboto, sans-serif; font-size: 12px; font-weight: 200;" fill="rgb(50, 49, 63)" stroke="none" stroke-width="1px">-210</text><text x="0" y="148.07692307692307" dx="0em" dy="0.3em" style="text-anchor: end; visibility: hidden; font-family: Roboto, sans-serif; font-size: 12px; font-weight: 200;" fill="rgb(50, 49, 63)" stroke="none" stroke-width="1px">-200</text><text x="0" y="134.6153846153846" dx="0em" dy="0.3em" style="text-anchor: end; visibility: inherit; font-family: Roboto, sans-serif; font-size: 12px; font-weight: 200;" fill="rgb(50, 49, 63)" stroke="none" stroke-width="1px">-190</text><text x="0" y="121.15384615384615" dx="0em" dy="0.3em" style="text-anchor: end; visibility: hidden; font-family: Roboto, sans-serif; font-size: 12px; font-weight: 200;" fill="rgb(50, 49, 63)" stroke="none" stroke-width="1px">-180</text><text x="0" y="107.6923076923077" dx="0em" dy="0.3em" style="text-anchor: end; visibility: inherit; font-family: Roboto, sans-serif; font-size: 12px; font-weight: 200;" fill="rgb(50, 49, 63)" stroke="none" stroke-width="1px">-170</text><text x="0" y="94.23076923076923" dx="0em" dy="0.3em" style="text-anchor: end; visibility: hidden; font-family: Roboto, sans-serif; font-size: 12px; font-weight: 200;" fill="rgb(50, 49, 63)" stroke="none" stroke-width="1px">-160</text><text x="0" y="80.76923076923077" dx="0em" dy="0.3em" style="text-anchor: end; visibility: inherit; font-family: Roboto, sans-serif; font-size: 12px; font-weight: 200;" fill="rgb(50, 49, 63)" stroke="none" stroke-width="1px">-150</text><text x="0" y="67.3076923076923" dx="0em" dy="0.3em" style="text-anchor: end; visibility: hidden; font-family: Roboto, sans-serif; font-size: 12px; font-weight: 200;" fill="rgb(50, 49, 63)" stroke="none" stroke-width="1px">-140</text><text x="0" y="53.84615384615385" dx="0em" dy="0.3em" style="text-anchor: end; visibility: inherit; font-family: Roboto, sans-serif; font-size: 12px; font-weight: 200;" fill="rgb(50, 49, 63)" stroke="none" stroke-width="1px">-130</text><text x="0" y="40.38461538461538" dx="0em" dy="0.3em" style="text-anchor: end; visibility: hidden; font-family: Roboto, sans-serif; font-size: 12px; font-weight: 200;" fill="rgb(50, 49, 63)" stroke="none" stroke-width="1px">-120</text><text x="0" y="26.923076923076923" dx="0em" dy="0.3em" style="text-anchor: end; visibility: inherit; font-family: Roboto, sans-serif; font-size: 12px; font-weight: 200;" fill="rgb(50, 49, 63)" stroke="none" stroke-width="1px">-110</text><text x="0" y="13.461538461538453" dx="0em" dy="0.3em" style="text-anchor: end; visibility: hidden; font-family: Roboto, sans-serif; font-size: 12px; font-weight: 200;" fill="rgb(50, 49, 63)" stroke="none" stroke-width="1px">-100</text><text x="0" y="0" dx="0em" dy="0.3em" style="text-anchor: end; visibility: hidden; font-family: Roboto, sans-serif; font-size: 12px; font-weight: 200;" fill="rgb(50, 49, 63)" stroke="none" stroke-width="1px">-90</text></g><line x1="51.125" y1="0" x2="51.125" y2="175" fill="rgb(0, 0, 0)" stroke="rgb(204, 204, 204)" stroke-width="1px"></line></g></g><g transform="translate(51, 0)" clip-path="url(#clip_0)"><clipPath id="clip_0"><rect width="278" height="175"></rect></clipPath><g><g><g><line x1="0" y1="0" x2="0" y2="175" fill="rgb(0, 0, 0)" stroke="rgb(60, 60, 60)" stroke-width="1px" opacity="0.25"></line><line x1="23.239583333333332" y1="0" x2="23.239583333333332" y2="175" fill="rgb(0, 0, 0)" stroke="rgb(60, 60, 60)" stroke-width="1px" opacity="0.25"></line><line x1="46.479166666666664" y1="0" x2="46.479166666666664" y2="175" fill="rgb(0, 0, 0)" stroke="rgb(60, 60, 60)" stroke-width="1px" opacity="0.25"></line><line x1="69.71875" y1="0" x2="69.71875" y2="175" fill="rgb(0, 0, 0)" stroke="rgb(60, 60, 60)" stroke-width="1px" opacity="0.25"></line><line x1="92.95833333333333" y1="0" x2="92.95833333333333" y2="175" fill="rgb(0, 0, 0)" stroke="rgb(60, 60, 60)" stroke-width="1px" opacity="0.25"></line><line x1="116.19791666666667" y1="0" x2="116.19791666666667" y2="175" fill="rgb(0, 0, 0)" stroke="rgb(60, 60, 60)" stroke-width="1px" opacity="0.25"></line><line x1="139.4375" y1="0" x2="139.4375" y2="175" fill="rgb(0, 0, 0)" stroke="rgb(60, 60, 60)" stroke-width="1px" opacity="0.25"></line><line x1="162.67708333333334" y1="0" x2="162.67708333333334" y2="175" fill="rgb(0, 0, 0)" stroke="rgb(60, 60, 60)" stroke-width="1px" opacity="0.25"></line><line x1="185.91666666666666" y1="0" x2="185.91666666666666" y2="175" fill="rgb(0, 0, 0)" stroke="rgb(60, 60, 60)" stroke-width="1px" opacity="0.25"></line><line x1="209.15625" y1="0" x2="209.15625" y2="175" fill="rgb(0, 0, 0)" stroke="rgb(60, 60, 60)" stroke-width="1px" opacity="0.25"></line><line x1="232.39583333333334" y1="0" x2="232.39583333333334" y2="175" fill="rgb(0, 0, 0)" stroke="rgb(60, 60, 60)" stroke-width="1px" opacity="0.25"></line><line x1="255.63541666666666" y1="0" x2="255.63541666666666" y2="175" fill="rgb(0, 0, 0)" stroke="rgb(60, 60, 60)" stroke-width="1px" opacity="0.25"></line><line x1="278.875" y1="0" x2="278.875" y2="175" fill="rgb(0, 0, 0)" stroke="rgb(60, 60, 60)" stroke-width="1px" opacity="0.25"></line></g><g><line x1="0" y1="175" x2="278.875" y2="175" fill="rgb(0, 0, 0)" stroke="rgb(60, 60, 60)" stroke-width="1px" opacity="0.25"></line><line x1="0" y1="161.53846153846155" x2="278.875" y2="161.53846153846155" fill="rgb(0, 0, 0)" stroke="rgb(60, 60, 60)" stroke-width="1px" opacity="0.25"></line><line x1="0" y1="148.07692307692307" x2="278.875" y2="148.07692307692307" fill="rgb(0, 0, 0)" stroke="rgb(60, 60, 60)" stroke-width="1px" opacity="0.25"></line><line x1="0" y1="134.6153846153846" x2="278.875" y2="134.6153846153846" fill="rgb(0, 0, 0)" stroke="rgb(60, 60, 60)" stroke-width="1px" opacity="0.25"></line><line x1="0" y1="121.15384615384615" x2="278.875" y2="121.15384615384615" fill="rgb(0, 0, 0)" stroke="rgb(60, 60, 60)" stroke-width="1px" opacity="0.25"></line><line x1="0" y1="107.6923076923077" x2="278.875" y2="107.6923076923077" fill="rgb(0, 0, 0)" stroke="rgb(60, 60, 60)" stroke-width="1px" opacity="0.25"></line><line x1="0" y1="94.23076923076923" x2="278.875" y2="94.23076923076923" fill="rgb(0, 0, 0)" stroke="rgb(60, 60, 60)" stroke-width="1px" opacity="0.25"></line><line x1="0" y1="80.76923076923077" x2="278.875" y2="80.76923076923077" fill="rgb(0, 0, 0)" stroke="rgb(60, 60, 60)" stroke-width="1px" opacity="0.25"></line><line x1="0" y1="67.3076923076923" x2="278.875" y2="67.3076923076923" fill="rgb(0, 0, 0)" stroke="rgb(60, 60, 60)" stroke-width="1px" opacity="0.25"></line><line x1="0" y1="53.84615384615385" x2="278.875" y2="53.84615384615385" fill="rgb(0, 0, 0)" stroke="rgb(60, 60, 60)" stroke-width="1px" opacity="0.25"></line><line x1="0" y1="40.38461538461538" x2="278.875" y2="40.38461538461538" fill="rgb(0, 0, 0)" stroke="rgb(60, 60, 60)" stroke-width="1px" opacity="0.25"></line><line x1="0" y1="26.923076923076923" x2="278.875" y2="26.923076923076923" fill="rgb(0, 0, 0)" stroke="rgb(60, 60, 60)" stroke-width="1px" opacity="0.25"></line><line x1="0" y1="13.461538461538453" x2="278.875" y2="13.461538461538453" fill="rgb(0, 0, 0)" stroke="rgb(60, 60, 60)" stroke-width="1px" opacity="0.25"></line><line x1="0" y1="0" x2="278.875" y2="0" fill="rgb(0, 0, 0)" stroke="rgb(60, 60, 60)" stroke-width="1px" opacity="0.25"></line></g></g></g><g><g><line x1="0" y1="-121.15384615384615" x2="278.875" y2="-121.15384615384615" fill="rgb(0, 0, 0)" stroke="rgb(153, 153, 153)" stroke-width="1.5px"></line></g></g><g><g><line x1="23.239583333333332" y1="0" x2="23.239583333333332" y2="175" fill="rgb(0, 0, 0)" stroke="rgb(153, 153, 153)" stroke-width="1.5px"></line></g></g><g><g><g><g><g><path stroke="rgb(255, 112, 67)" stroke-width="2px" d="M23.820572916666666,148.07692307692307L23.936770833333334,148.07692307692307L24.401562499999997,148.07692307692307L24.51776041666667,148.07692307692304L24.75015625,148.07692307692304L24.866354166666667,148.07692307692304L24.982552083333335,148.07692307692304L25.21494791666667,148.07692307692304L25.331145833333334,148.07692307692304L25.447343749999998,148.07692307692304L25.563541666666666,148.07692307692304L26.028333333333336,148.07692307692312L27.07411458333333,148.07692307692312L27.1903125,148.07692307692307L27.422708333333333,148.07692307692304L27.77130208333333,148.07692307692304L27.887500000000003,148.07692307692304L28.11989583333333,122.76666026003578L28.352291666666666,132.89138234659248L28.468489583333334,138.9658207298164L28.70088541666667,142.61034161833388L28.93328125,144.79700298297902L29.049479166666668,146.10898138164654L29.398072916666667,146.89616178971815L29.514270833333335,147.3684676473793L29.63046875,146.5749253886356L29.74666666666667,147.17572507886334L29.862864583333334,147.53620449945555L30.211458333333333,147.75249201013506L30.32765625,147.88226446553958L30.560052083333336,147.96012792042112L30.792447916666667,148.00684598674002L30.908645833333335,148.03487682415178L31.02484375,148.05169532574217L31.141041666666666,148.06178642638798L31.489635416666665,148.06784108666443L31.605833333333333,148.07147388279037L31.72203125,148.07365356045156L31.838229166666668,148.07496136704304L32.070625,148.07574605099612L32.41921875,148.07621686136727L33.00020833333333,148.07649934758973L33.11640625,148.07666883932313L33.23260416666667,148.0767705343631L33.34880208333333,148.07683155138704L33.464999999999996,148.07686816160148L33.58119791666667,148.07689012773008L34.1621875,148.07690330740726L35.09177083333333,148.07691121521356L35.440364583333334,107.69230057495557L35.5565625,123.84614957582087L36.36994791666666,133.53845897628992L36.71854166666666,139.35384461655337L36.9509375,142.84307600070488L37.067135416666666,144.93661483119348L37.18333333333333,146.19273812948575L37.648125,142.6387198007676L37.764322916666664,144.81400111123008L37.880520833333335,146.1191698975074L38.229114583333335,146.90227116927366L38.345312500000006,147.37213193233347L38.693906250000005,147.6540483901693L39.15869791666667,147.8231982648708L39.391093749999996,147.92468818969175L39.62348958333334,147.98558214458427L39.739687499999995,107.63750313290433L39.855885416666666,123.81327111051186L39.97208333333334,133.51873189707632L40.436875,139.34200836901502L40.669270833333336,142.83597425217823L41.017864583333335,143.3169691666916L41.1340625,145.22095073078418L41.25026041666667,124.28641659231667L41.48265625,133.8026191861592L41.59885416666667,139.51234074246474L41.71505208333334,142.93817367624806L42.06364583333334,144.99367343651804L42.29604166666667,146.22697329268004L42.41223958333333,146.96695320637727L42.64463541666667,147.4109411545956L42.76083333333333,129.90810315429582L43.10942708333333,137.17563112334676L43.69041666666667,141.53614790477724L43.80661458333333,144.15245797363556L43.9228125,145.72224401495058L44.155208333333334,146.66411563973958L44.27140625,147.22923861461297L44.50380208333333,123.8760047072293L44.73619791666667,103.40252590126066L44.85239583333333,121.2722847715256L44.968593750000004,131.9941400936846L45.08479166666666,138.42725328697995L45.3171875,98.13327504911106L45.43338541666666,118.11073426023586L46.246770833333336,130.09720978691072L46.7115625,116.28909510291567L47.17635416666666,102.0811493694417L47.292552083333334,120.47945885243428L47.408750000000005,126.67229069607593L47.87354166666667,127.69568210995324L48.22213541666667,119.15587080443349L48.570729166666666,100.03198402112164L48.68692708333334,119.24995964344222L49.03552083333334,129.16536040145L49.15171875,120.57613931779308L49.384114583333336,89.03799128298353L49.5003125,76.03817938517471L49.616510416666664,104.85367686187404L49.84890625,79.60451380943212L49.96510416666667,59.60886213181311L50.1975,74.53454804831863L50.31369791666667,103.9514980597604L50.42989583333334,121.60166806662549L50.77848958333334,132.19177007074452L51.12708333333333,129.3919851193698L51.708072916666666,136.8659603023911L51.94046875,108.50419156605004L52.17286458333333,93.64097647809157L52.2890625,115.41535511762417L52.870052083333334,112.86459768595914L53.21864583333333,96.79568168849856L53.33484375,115.15433209002222L53.45104166666667,97.09259925401335L53.56723958333333,114.25555955240803L53.79963541666666,103.5533357314448L54.26442708333333,84.74738605425152L54.496822916666666,78.30997009408935L54.72921875,87.90905897953054L54.961614583333336,111.97620461848754L55.54260416666666,121.5703381557079L55.775000000000006,113.3268182780401L56.23979166666666,127.22686019759331L56.820781249999996,117.79765458009446L57.05317708333334,129.9093619788259L57.169374999999995,118.33023257191094L57.517968749999994,98.99813954314655L57.75036458333334,118.62965295665717L57.8665625,130.40856100476353L57.982760416666665,108.9374442951658L58.21515625,124.59323580786868L58.331354166666664,109.7559414847212L58.447552083333335,125.08433412160194L58.91234375,134.28136970373038L59.02854166666667,106.95343720685361L59.2609375,104.55667770872756L59.609531249999996,68.65708354831348L60.07432291666667,86.96348089821883L60.19052083333333,54.87039623123901L60.30671875,52.306853123358806L60.422916666666666,64.76872725863068L60.6553125,81.9381594321015L61.00390625,49.1628956592609L61.12010416666667,46.72850662632576L61.23630208333333,56.57556551425702L61.584895833333334,72.17610853932345L61.70109375,82.61335743128637L61.93348958333333,94.79878368954107L62.63067708333333,76.26388559834005L62.86307291666666,60.296792897465565L63.211666666666666,91.6396142000178L63.32786458333333,52.82992236616452L63.560260416666665,78.00564572739104L63.676458333333336,96.3418489748962L64.25744791666666,117.0358786157069L64.37364583333333,80.45229640019338L64.60604166666667,99.96368553242374L64.8384375,110.59359593483885L64.95463541666666,125.58692679167255L65.07083333333334,87.1983099211574L65.41942708333333,72.7805244142329L65.535625,102.89908387930896L65.88421875,86.50868109681613L66.00041666666667,111.13597788885887L66.2328125,125.91235596408453L66.34901041666667,134.7781828092199L66.58140625,87.86690968553195L67.04619791666667,86.10476119593456L67.16239583333333,50.04747210217613L67.27859375,59.105406338228754L67.51098958333334,94.69401303370645L67.6271875,116.04717705099313L67.97578125,121.85907546136512L68.09197916666666,112.4231375845114L68.20817708333334,120.76157485839916L68.324375,131.6877141458087L68.55677083333333,79.01262848748523L68.67296875,88.8691155540296L68.78916666666667,90.47531548626391L68.90536458333332,96.8236508302199L69.95114583333334,117.32495972890119L70.06734374999999,109.16420660657147L70.29973958333333,102.65237011778903L70.64833333333334,68.05296053221188L71.46171874999999,89.83177631932713L71.57791666666667,85.12983502236548L72.04270833333334,92.00097793649621L72.15890625,110.12366368497467L72.27510416666667,103.76650590329248L72.50750000000001,103.18298046505244L72.73989583333332,109.83286520210842L73.2046875,109.51510373664968L74.25046875,106.63213916506673L74.36666666666666,123.21005272980929L74.48286458333334,77.15680086865484L74.5990625,59.21715744426983L74.83145833333333,69.45337138963885L74.94765625,56.74894591070639L75.29625,75.51090600796229L75.64484374999999,59.30654360477739L76.45822916666667,64.12238770132797L76.57442708333333,97.70420185156603L76.69062500000001,90.39175188017039L76.80682291666666,68.77351266656378L77.03921875,84.8794922153229L77.15541666666667,89.6969260984245L77.27161458333333,113.04892488982392L77.50401041666666,108.7524318569713L77.62020833333332,69.02068988341357L77.73640625,83.41241393004815L77.96880208333334,109.27821758879811L78.20119791666666,80.10539209174041L78.31739583333334,48.06323525504425L78.78218749999999,36.37640269148806L79.59557291666667,58.979687768738984L79.94416666666667,50.46473573816646L80.06036458333334,35.66345682751526L80.29276041666667,59.628843327278396L80.52515625,77.77730599636703L80.87375,60.66638359782021L82.15192708333332,34.78444554330751L82.50052083333334,50.48605194136911L82.61671875,44.291631164821474L82.73291666666667,63.72882485273902L82.9653125,39.314217988566504L83.19770833333334,82.2808384854476L83.31390625,93.52234924511471L83.54630208333333,57.19033262399189L84.12729166666668,48.31419957439515L84.24348958333333,60.757750513867855L84.94067708333333,74.14695800062843L85.17307291666667,81.64202095422321L85.28927083333333,82.90828949561084L85.40546875000001,101.4372813896742L85.52166666666666,91.01621498765067L85.63786458333333,84.76357514643655L85.7540625,99.31968354940038L85.87026041666667,74.13027166810176L85.98645833333333,53.6320091547072L86.10265625000001,69.3330516466705L86.21885416666666,85.75367714184843L86.45125,86.99066782357059L86.79984375000001,70.50209300183465L86.91604166666666,53.608948108793086L87.03223958333334,63.93459963450661L87.26463541666666,52.360759780703965L87.72942708333333,64.26260971457624L87.96182291666668,70.86525813643807L88.19421874999999,47.90377026647822L88.65901041666667,41.665339082963854L88.77520833333334,37.92228037285522L88.89140624999999,49.67644514679005L89.12380208333333,40.57509785730478L89.35619791666667,57.729674098998274L89.58859375,39.4839583055528L89.82098958333333,36.613451906408585L89.93718750000001,21.429609605383636L90.28578125,51.62699653246092L90.51817708333333,81.05312099639963L90.634375,91.70879567476284L90.75057291666667,67.94835432793462L90.86677083333332,71.46132028906847L90.98296875,83.26140755805645L91.09916666666666,61.264536842526155L91.3315625,84.1433374901311L91.44776041666667,63.409079417155574L92.02875,52.58390918875489L92.14494791666668,48.78111474402217L92.37734375,44.8840534617979L92.49354166666667,75.93043207707875L92.60973958333334,59.558259246247246L92.95833333333333,50.27341708620988L93.19072916666667,68.39481948249515L93.423125,83.57535322795866L93.65552083333333,92.68367347523672L93.88791666666667,63.14866562360358L94.12031250000001,51.88919937416212L94.23651041666666,80.6719811629588L94.35270833333333,82.86472715931374L94.70130208333333,78.25729783404978L95.16609375,60.41591716196835L95.28229166666667,34.095704143334835L95.51468750000001,33.38049940907785L95.63088541666666,37.79753041467748L95.86328125,70.06313363342187L96.32807291666666,61.422495564668495L96.90906249999999,94.46888195418575L97.72244791666667,66.91209840328067L97.83864583333333,72.45495134966069L98.07104166666667,56.93450927133484L98.18723958333334,68.08378248587783L98.3034375,57.004115645372856L98.41963541666667,82.12554631030065L98.53583333333333,61.65994317079577L98.65203125000001,69.8421197486313L98.88442708333332,77.44373338764032L99.000625,59.92777849412265L99.46541666666667,48.87974401955053L99.58161458333332,30.4047694886534L99.81401041666666,55.93516938549972L100.04640625,45.94571701591521L100.395,27.567430209549116L100.62739583333334,43.46353504880639L100.74359375,36.30889026005307L100.85979166666668,32.016103386801085L101.20838541666667,33.20966203208066L101.32458333333334,61.38733568078684L101.44078125,61.063170639241335L101.55697916666668,62.484056229698645L101.67317708333333,73.02889527628074L101.90557291666667,102.50964485807614L102.02177083333333,98.65963306869186L102.13796875,65.11885676429206L102.37036458333333,41.22516021242137L102.4865625,40.35048074283744L102.60276041666667,37.13336536877938L102.71895833333333,59.9723269135753L102.83515625000001,36.521857686606694L102.95135416666666,27.2977299965794L103.18375,29.840176459486102L103.29994791666667,51.28872126030706L103.64854166666666,44.234771217722674L104.11333333333334,36.771631961402846L104.46192708333334,55.986056099918635L104.578125,52.437787506105046L104.69432291666666,35.2319032728938L104.92671874999999,51.83144965604396L105.04291666666666,50.48348517824176L105.15911458333333,59.367014183868136L105.2753125,48.543285433397784L105.50770833333334,44.20289433696175L105.62390624999999,37.29096737140781L105.74010416666667,38.52842657669085L106.20489583333334,38.73244056139914L106.6696875,31.316387413762556L106.78588541666667,51.63598629441139L107.01828125,44.443130238185276L107.13447916666667,37.43510891214194L107.25067708333333,33.76875765497748L107.36687500000001,34.261254592986504L107.48307291666667,58.24906044809958L107.59927083333332,71.02635934578285L107.94786458333333,59.846584838238925L108.0640625,49.369489364481815L108.76125,42.006309003304466L108.99364583333333,67.20378540198269L109.10984375,52.70688662580499L109.22604166666666,44.00874736009838L109.34223958333334,37.71294072375134L109.57463541666668,35.55084135732775L109.92322916666667,37.4843509682428L110.03942708333334,35.413687504022604L110.38802083333333,36.32513557933664L110.50421874999999,31.48738903990969L110.62041666666667,34.5078180393304L110.8528125,34.16622928513671L111.08520833333333,63.038199109543555L111.43380208333333,93.28445792726463L111.55000000000001,69.97067475635879L111.78239583333333,56.52086639227683L112.13098958333333,36.066365989212244L112.24718750000001,41.02443497814274L112.36338541666666,38.07619944842411L112.59578125,33.61495043828523L112.71197916666667,34.70743180143268L112.82817708333334,37.516766773167305L113.06057291666666,21.971598525438864L113.17677083333334,39.56757449987872L113.29296875,78.1251600845426L113.87395833333333,51.72124989687942L114.33874999999999,90.26351916889688L114.45494791666667,103.69657303979965L114.68734375,85.37178997772592L114.91973958333334,65.22307398663555L115.15213541666667,81.13384439198134L115.26833333333333,73.44953740441957L115.38453125,58.60818398111331L115.50072916666667,49.70337192712953L115.61692708333334,44.898946233200796L115.733125,43.09321389376663L115.96552083333333,72.16362064395227L116.19791666666667,61.06740315560215L116.4303125,50.101980354899744L116.77890625,45.67657282832445L117.01130208333332,83.94440523545619L117.1275,109.59741237204292L117.24369791666666,81.37383203861035L117.70848958333333,108.05506845393543L117.94088541666666,64.29457953389972L118.05708333333334,75.73059387418597L118.28947916666668,94.97681786297314L118.63807291666667,72.06301379470695L118.87046875,54.54550058451647L118.98666666666668,48.88114650455604L119.10286458333333,33.63638021042593L119.45145833333333,33.104905049332494L119.80005208333333,27.401404568061043L119.91625,28.82545812545201L120.14864583333333,30.756813336809678L120.38104166666666,34.60793415593195L120.6134375,37.995529724328414L121.19442708333332,37.335779373058585L121.42682291666667,74.63223685460436L121.54302083333334,65.24088057430109L121.65921875000001,51.52914372919603L121.77541666666666,61.07133239136376L122.12401041666666,54.95049174251056L122.82119791666668,63.66260273781405L123.05359374999999,41.966792411919194L123.16979166666667,33.2569985240746L123.28598958333333,57.64650680675246L123.4021875,53.43405793020533L123.51838541666667,46.0604347581232L123.98317708333333,63.174722393335486L124.21557291666667,53.520218051385896L124.33177083333334,66.57366929236998L124.68036458333333,41.5595861908066L124.79656250000001,70.70498248371474L124.91276041666667,60.1922202594596L125.02895833333332,50.11533215567576L125.14515625,46.223045447251614L125.37755208333333,43.88767342219712L125.49375,37.10183482254903L125.60994791666667,31.953408585837106L125.72614583333332,22.40281438227151L125.95854166666666,22.05707324474753L126.30713541666667,69.2342439468485L126.53953125,57.155930983493725L126.65572916666666,45.062789359327006L126.888125,60.96075053867311L127.00432291666668,53.268758015511565L127.35291666666667,91.19202404007613L127.46911458333334,97.25367596250724L127.70151041666668,112.19835942365815L127.81770833333333,113.6267079618872L128.63109375,75.71448631559387L128.74729166666665,84.73638409704864L128.86348958333335,85.30336891976766L128.9796875,51.720482890322124L129.09588541666665,68.18613588803946L129.21208333333334,75.91168153282366L129.32828125,86.47008584277111L129.56067708333333,95.49743612104731L129.676875,68.06769244185915L129.79307291666666,38.148307772807804L130.14166666666668,41.196676971376995L130.25786458333334,44.10262156744159L130.3740625,56.07695755584956L130.49026041666667,65.4154053027405L130.72265625,48.941550873951996L131.41984375,42.28800744744813L131.53604166666668,36.14203523769964L131.65223958333334,49.685221142619795L131.88463541666667,41.65728653172572L132.34942708333335,24.994371919035427L132.69802083333335,64.53508468988278L133.04661458333334,70.49028158316044L133.51140625,75.67878433451163L133.85999999999999,76.09957829301469L133.97619791666668,51.044362360424195L134.09239583333334,30.088155877792982L134.32479166666667,77.283662757445L134.44098958333333,66.83173611600547L134.5571875,63.25288782344944L134.90578125,35.797886540223516L135.02197916666668,80.70950115490332L135.254375,60.810316077557374L135.48677083333334,50.48618964653443L135.60296875,45.90709840330527L135.83536458333333,29.159643657367777L136.06776041666666,32.03424773288219L136.18395833333332,31.605164024344695L136.41635416666668,30.270790722299143L136.64875,28.393243664148695L136.76494791666667,32.112869275412294L136.88114583333333,25.729260026785866L136.99734375,31.05294063145613L137.3459375,53.6317643788737L137.46213541666665,75.79444324270884L137.57833333333335,53.01512748408683L137.92692708333334,44.193691875067486L138.043125,23.823907432732796L138.97270833333334,15.37126753656273L139.32130208333334,57.684298983476076L139.4375,70.14904092854717L139.66989583333333,57.16634763405138L139.90229166666668,84.91519319581546L140.01848958333332,51.48757745595082L140.3670833333333,62.661777242801264L140.48328125,44.058604807219204L140.71567708333336,24.28131673048538L140.831875,51.72263619213738L140.94807291666666,48.80281248451321L141.06427083333335,28.204764413784844L141.41286458333335,56.23055095596322L142.34244791666666,92.96909980434715L142.45864583333335,67.62761372876214L142.57484374999999,93.34579900648805L142.80723958333334,69.4690178654313L143.03963541666667,58.37371841156648L143.15583333333333,49.562692585401415L143.27203125,60.968384782010084L143.50442708333333,53.81180009997529L143.73682291666665,44.671695444600545L143.85302083333335,46.187632651375715L143.96921875,40.09719497544081L144.3178125,59.05831698526451L144.43401041666667,67.74268249885101L144.55020833333333,56.260994114695244L145.13119791666665,39.14121185343252L145.36359375,77.33088095821334L145.47979166666664,60.93699011338952L145.7121875,38.71604022187986L145.82838541666666,65.22962413312791L146.06078125000002,47.21469755679985L146.75796875,35.328818534079915L146.87416666666664,31.96652188967872L147.1065625,22.94914390303802L147.33895833333332,73.000255572592L147.80375,76.10784565124749L148.03614583333334,66.12624585228694L148.26854166666666,53.67574751137218L148.5009375,44.051602352977184L148.73333333333332,70.58480756563243L148.96572916666668,57.96626915476406L149.0819270833333,77.85668456978152L149.198125,66.63708766494585L149.31432291666667,80.90532952204441L149.43052083333336,85.15858232861126L149.8953125,62.941303243320625L150.12770833333335,73.84170502291543L150.24390624999998,53.45886916759541L150.94109375,43.38301380824957L151.17348958333335,38.41442366956513L151.40588541666668,34.35634650943139L151.52208333333334,35.152269444120385L151.63828124999998,60.39905397416452L152.33546875,59.39327853834486L152.6840625,32.405197892237716L152.91645833333334,36.13542642765033L153.26505208333333,59.912025087359424L153.61364583333332,69.33183043703102L153.72984375000001,52.90679056991096L153.96223958333334,31.205612803485035L154.0784375,52.64644460516795L154.19463541666664,50.434020609254624L154.31083333333333,62.02964313478355L154.54322916666666,49.60240126548553L154.65942708333333,49.146056143906705L154.89182291666665,60.71840291711328L155.00802083333332,67.12334944257563L155.12421875,93.04324043477614L155.4728125,66.59517503009647L155.58901041666664,50.18787424882711L155.82140625,79.11272454929623L156.75098958333334,45.852250114193104L156.8671875,43.66519622236201L156.98338541666666,34.27604081034029L157.09958333333333,32.950239870819566L157.44817708333332,51.000913153260974L157.56437499999998,48.36977866118736L157.68057291666668,81.25263642748165L158.02916666666667,77.29004339495052L158.14536458333336,59.297102960047226L158.2615625,67.34749254525912L158.61015625,52.793110911770874L160.00453124999999,44.060481931677906L160.35312499999998,47.97475069746829L160.58552083333333,42.78485041848097L160.70171875,58.51706409724243L160.93411458333333,70.11023845834548L161.0503125,57.14306615193038L161.39890625,47.74737815269669L161.7475,73.3407345839257L161.86369791666667,59.619825365740034L161.97989583333333,47.618049065597866L162.09609375000002,49.57082943935873L162.21229166666666,38.35788227899986L162.32848958333332,31.091652444322985L162.44468750000001,50.42422223582455L162.56088541666665,44.25453334149474L162.79328125,37.321950774127615L163.02567708333333,49.85470892601503L163.141875,69.22051766330132L163.37427083333333,43.68615675182694L163.60666666666665,39.13477097417308L163.8390625,61.71163181527311L163.95526041666665,48.873132935317706L164.07145833333334,70.78541822272908L164.18765625,95.77894324132974L164.30385416666664,106.46736594479786L164.42005208333333,75.18811187457102L164.88484375000002,56.95902097089648L165.46583333333334,50.329258736384034L165.58203125,46.351401395676575L165.81442708333333,39.65699468355979L165.930625,63.640350656289726L166.39541666666668,37.64574885531229L166.5116145833333,38.20283392857198L166.6278125,33.69093112637396L166.86020833333336,32.599174060439765L167.20880208333335,29.7902736670331L167.55739583333335,52.33570266175833L167.78979166666667,30.862960058593465L168.0221875,69.67162218900222L168.13838541666667,53.649127159555164L168.37078125,73.65101475727155L168.48697916666666,60.88291654667064L168.83557291666668,47.298980697233155L168.95177083333334,42.917849956801426L169.06796874999998,33.827633051003936L169.30036458333333,47.75811829214082L169.4165625,56.116409436822956L169.53276041666666,48.746768739016844L169.76515625,30.863445858794726L169.88135416666665,30.364221361430697L169.99755208333335,53.218532816858406L170.11375,30.854196613191974L170.22994791666667,30.358671814069044L170.34614583333334,31.138280011518347L170.92713541666666,53.682968006911L171.04333333333332,47.82516541953122L171.27572916666665,41.618176174795664L171.74052083333333,40.58629032026202L171.85671875,39.42869726908028L172.08911458333333,32.27260297683277L172.55390625,52.74817717071507L172.78630208333334,47.8027524562752L173.01869791666664,56.14318993530359L173.25109375,65.45514473041291L173.3672916666667,48.96539453055544L173.48348958333332,76.22539056448711L173.59968750000002,104.96600356946153L173.83208333333332,61.36421752629231L174.18067708333334,49.741607438852306L174.296875,44.92188754023446L174.52927083333333,26.953132524140692L174.64546875,59.78726412986903L174.76166666666668,47.718512324075256L174.99406249999998,58.784953548291305L175.45885416666667,71.88635674435942L175.69125,79.74719866200026L175.80744791666666,57.54062688950785L176.03984375,69.5243761337047L176.15604166666668,51.945394910992064L176.50463541666667,65.09031386967214L176.62083333333334,48.208034475649455L177.20182291666666,38.61712837769736L177.31802083333335,50.63181548815688L177.43421874999999,33.07139698520182L177.55041666666668,52.1505304988134L177.78281249999998,67.36724137621113L178.01520833333333,50.65111405649591L178.13140625,42.23682228005141L178.24760416666666,25.88055490649236L178.36380208333333,42.451409866972334L178.48,57.24007668941419L178.59619791666665,71.49789216749467L178.94479166666667,81.12950453126604L179.29338541666667,56.75462579568268L179.52578125000002,75.51431393894805L179.75817708333332,69.00089605567652L179.87437500000001,48.93899917186747L179.99057291666665,27.209553349274334L180.10677083333334,65.86419354802611L180.22296875,49.21082382112335L180.68776041666666,38.68034044652018L181.15255208333332,35.05435811406596L181.38494791666665,51.72492256074727L181.50114583333334,42.881107382602224L181.84973958333333,32.19020289109981L181.9659375,76.92950635004449L182.0821354166667,47.773088425411316L182.43072916666668,38.35616074755448L182.77932291666667,53.70600414084039L182.89552083333334,45.146679407581175L183.01171875,50.7803153368564L183.24411458333333,40.16049689442153L183.3603125,59.096298136652926L183.47651041666668,66.688548112761L183.82510416666668,71.78235963688736L184.0575,57.06941578213242L184.17369791666667,45.010880238510204L184.28989583333336,40.4680666046446L184.40609375,35.58853227047907L184.52229166666666,32.66081166997975L184.63848958333335,36.827256232757065L184.87088541666668,33.40404604734655L184.98708333333335,33.50396608994638L185.33567708333334,31.410071961660144L185.91666666666666,19.384504715457616L187.31104166666665,30.47685667542842L187.42723958333335,34.97842169756473L187.5434375,33.91012994161575L187.65963541666667,79.57684719573868L188.12442708333333,69.82303139436628L188.47302083333332,100.04766499046593L188.58921875000001,91.25936822504882L188.82161458333334,85.9863901657985L188.9378125,77.43798794563297L189.05401041666664,55.07817738276441L189.17020833333333,45.43152181427403L189.40260416666666,42.87429770394904L189.63500000000002,37.03227093006173L189.75119791666665,33.527054865729355L189.86739583333332,33.57777138097607L190.09979166666665,33.6082012901241L190.21598958333334,30.395690004843697L190.3321875,23.622029387521604L190.56458333333333,47.55783301712834L190.7969791666667,42.534699810277L191.49416666666667,61.05928142462776L191.7265625,55.481722700930476L192.30755208333332,45.13518746671214L192.42374999999998,38.38880478771959L192.88854166666667,52.648667488016365L193.46953125,64.9738158774252L193.58572916666668,75.0612126033782L194.05052083333334,56.88288140818077L194.5153125,47.59126730644693L194.86390624999999,73.78552961463743L195.21249999999998,57.732856230320884L195.32869791666667,38.94740604588483L195.44489583333333,39.522289781377054L195.79348958333333,34.482604638057L195.9096875,56.76648585975729L196.25828125,59.90604536200823L196.49067708333334,66.63593490951263L196.606875,50.75079171493836L196.72307291666667,43.91201349050148L197.53645833333334,36.5779773250701L197.65265625,66.1006325488882L197.76885416666664,71.96807183702524L197.88505208333333,54.48853540990742L198.11744791666666,54.23158278440602L198.23364583333333,47.61587274756668L198.34984375000002,38.80029287930924L198.46604166666665,28.126329573739365L198.58223958333332,22.260413128859007L198.6984375,31.12547864654619L198.81463541666665,35.3675948802354L198.93083333333334,51.374403081987396L199.04703125,43.20925723380782L199.395625,85.15632357105392L199.62802083333332,65.63225568109388L200.20901041666667,65.22550725481015L200.32520833333334,41.28915050673223L200.44140625,58.158105688654715L200.67380208333333,65.04870956703897L201.4871875,70.79845650945416L201.71958333333336,41.94061236721097L202.30057291666668,84.39513665109584L202.41677083333335,63.56015891373442L202.8815625,47.828403040548345L203.11395833333336,40.004734132021326L203.23015625,25.079763556135863L203.46255208333335,47.35555044137382L203.57874999999999,30.567176418670417L203.81114583333334,30.186459697356078L203.92734374999998,32.111875818413644L204.62453125,51.03635626027894L204.74072916666665,89.85258298693661L204.85692708333335,64.14231902293119L205.43791666666667,71.87000679837412L205.55411458333333,44.73738869440907L206.59989583333333,58.611663985876234L206.71609375,61.01315223767956L207.06468750000002,40.915583650300036L207.18088541666665,36.39550403633388L207.29708333333332,30.99114857564649L207.52947916666665,29.902381453080213L207.761875,65.32604425646352L207.99427083333333,40.81101116926272L208.34286458333332,64.87122208617299L208.45906250000002,52.92273325170381L208.69145833333332,67.83056302794536L208.80765625,43.92910704753646L209.04005208333334,61.89592576698343L209.27244791666666,45.75294007557468L209.38864583333333,56.52868712226789L209.62104166666668,64.0710584272069L209.73723958333332,41.673404287093376L210.20203125,28.234811803025252L210.31822916666667,29.32550246643054L210.550625,46.133763018319875L210.66682291666666,24.98795011868423L210.78302083333335,45.1466162250567L210.89921875,36.24181588888018L211.13161458333335,54.052781841020405L211.24781249999998,31.35474602768917L211.36401041666667,27.966693770459646L211.48020833333334,74.93386241612197L211.945,92.88339437275013L212.17739583333335,68.65311354672703L212.29359374999999,71.8841758203439L212.40979166666668,73.82281318451402L212.64218749999998,73.909072526093L212.87458333333333,80.96082813104042L213.10697916666666,58.80726610939348L213.339375,92.36128274255917L213.45557291666665,83.95523118399704L213.57177083333335,61.142369479629004L213.80416666666667,37.76234476470046L213.92036458333334,49.5804837818972L214.0365625,74.440597961446L214.15276041666667,54.89512800763682L214.26895833333333,33.47553834304363L214.38515625000002,57.23916915967236L214.61755208333332,93.5742707265726L214.73375000000001,62.60610089748204L215.08234375,39.17904515387385L215.19854166666664,49.89204247693971L215.4309375,31.550610101548433L215.54713541666666,35.0842122147752L215.89572916666665,30.742835021172823L216.01192708333332,23.29185485885752L216.128125,44.128959069160665L216.24432291666665,34.01583697995794L216.36052083333334,53.79411757259017L216.59291666666664,38.738009005092565L217.05770833333332,37.78126694151708L217.29010416666668,77.05337554952567L217.40630208333332,80.15510225279232L217.5225,96.55459981321387L217.87109375,85.3942983494668L217.98729166666666,60.39042516352622L218.2196875,74.46502432888494L218.68447916666668,89.9097838281002L218.8006770833333,64.17663952762933L218.916875,64.35213756273146L219.03307291666667,53.68820561456195L219.26546875,62.90523106104488L219.73026041666668,46.35852325201153L219.84645833333335,55.81511395120692L220.07885416666667,70.10445298610877L220.19505208333334,47.44728717628064L220.31125,29.00683384422993L220.42744791666667,16.86563876807642L220.65984375,19.81169095315355L221.00843749999999,23.733168418045985L221.12463541666668,30.932208743135288L221.24083333333334,29.867017553573493L221.35703124999998,27.074056685990254L221.47322916666667,30.78289555005571L221.82182291666666,27.623583483879585L221.93802083333333,29.497227013404668L222.4028125,27.390643900350508L222.51901041666667,21.81900172482567L222.75140625,57.7837087272031L222.86760416666667,32.5163790824757L222.98380208333333,17.35598129563927L223.44859375000001,22.79820416199893L223.7971875,31.98661480489168L224.02958333333333,31.576584267550384L224.37817708333333,21.099796714376385L224.49437500000002,53.582954951702774L224.61057291666665,47.226696047944735L224.72677083333332,39.10524839799759L224.84296875,47.69391826956779L225.07536458333334,29.693274038663734L225.1915625,28.585195192428994L225.30776041666664,26.8434248077651L225.6563541666667,49.49067026927444L225.77255208333332,83.00209446925697L226.00494791666668,79.41664129693879L226.12114583333332,58.419215547394046L226.23734375,60.35922163612873L226.5859375,41.60014836629261L226.81833333333333,31.960089019775573L226.93453125,31.0222072580192L227.05072916666668,26.690247431734594L227.16692708333332,65.5526099975023L227.9803125,89.40848907542444L228.09651041666666,78.41432421448546L228.44510416666668,100.89474837484514L229.02609375,94.99838748644557L229.49088541666666,79.0759555687904L229.72328124999999,84.5994194951204L229.95567708333334,52.37503631245686L230.18807291666667,45.963483325935655L230.30427083333333,40.50116691863831L230.42046875,36.146853997336834L230.53666666666666,35.149650859940564L231.00145833333335,32.39748282365664L231.11765625,45.82310507880938L231.23385416666667,39.878478431901016L231.46625,46.54247167452523L231.58244791666667,38.156252235484374L231.69864583333333,82.12452057205988L232.16343750000001,50.89009695862053L232.39583333333334,79.53405817517236L232.62822916666664,55.258896443564964L232.860625,92.38610709690822L232.97682291666666,109.81627964276032L233.20921875000002,97.65899855488698L233.67401041666665,90.9030914406245L233.90640625,66.38800871052852L234.02260416666664,40.90972830324019L234.3711979166667,67.08429852040567L234.71979166666668,68.78904065070495L235.18458333333334,77.35034746734604L235.41697916666666,97.5640546342538L235.53317708333333,67.15381739593688L235.88177083333332,60.215367360639036L236.3465625,63.05229733946034L236.46276041666667,38.369839942137716L236.57895833333336,33.25267319605187L236.69515625,53.336219302246505L237.04375,64.84788542750175L237.15994791666668,69.0625774103472L237.27614583333335,53.82216183082369L237.50854166666667,39.83175863695575L237.62473958333334,24.97597825909653L237.7409375,25.21635618622714L237.97333333333336,49.591352173274764L238.08953125,62.60096515011869L238.43812499999999,68.25288678237892L238.55432291666668,67.87480899250424L238.78671874999998,54.724885395502525L239.01911458333333,61.373392775763044L239.1353125,65.36249720391936L239.25151041666666,51.60211370696702L240.06489583333334,60.576652839564815L240.18109375,46.03829939604658L240.29729166666667,26.007595022243322L240.41348958333333,16.143018551807526L241.11067708333334,47.91658036185375L241.226875,58.36533283249687L241.34307291666664,63.01919969949811L241.45927083333333,48.58075058892963L241.57546875,62.533065737973146L241.80786458333333,48.827531750476204L242.15645833333332,77.75805751182419L242.50505208333334,60.65483450709451L242.96984375,69.23905455041057L243.0860416666667,75.46650965332329L243.20223958333332,72.74144425353244L243.31843750000002,74.33717424442716L243.43463541666668,82.29461223896399L243.66703125,53.68445965107071L243.78322916666667,59.672214252180886L244.24802083333333,47.6494823974624L244.59661458333332,63.58968943847746L244.71281249999998,68.84612135539416L245.06140625,71.46151896708265L245.17760416666667,71.95383445717268L245.29380208333336,42.09537759738052L245.41,40.334149635351395L245.52619791666666,30.662028242749322L245.75859375,47.47414002257267L245.87479166666668,80.71525324431282L245.99098958333335,47.352228869664614L246.10718749999998,55.872875783337236L246.22338541666667,66.36987931615623L246.68817708333336,71.59115835892449L246.804375,44.03161809227778L246.92057291666666,53.8805093169051L247.26916666666668,59.789844051681534L247.50156249999998,77.8739064310089L247.61776041666667,77.41665155091304L247.73395833333333,49.14229862285552L247.96635416666666,64.48537917371331L248.08255208333333,56.99891981192028L248.19875,42.27627496407523L248.43114583333335,22.673457286137452L248.54734375,42.14253591014401L248.8959375,35.51629077685562L249.12833333333333,69.77131292765183L249.36072916666666,74.17048006428341L249.47692708333332,55.27151880780078L249.70932291666665,62.23983436160355L250.05791666666664,54.03620830926981L250.2903125,61.498648062484975L250.40651041666666,50.360727299029435L250.52270833333333,73.83182099480226L250.75510416666665,69.60678490457366L250.9875,39.0717632504365L251.10369791666665,64.3661348733388L251.21989583333334,81.69660400092633L251.6846875,48.47950086209428L251.8008854166667,42.01077744033349L252.03328125000002,53.74492800266164L252.26567708333332,75.32387987852005L252.84666666666666,71.57894331172743L253.31145833333332,56.947365987036456L253.42765624999998,68.62995805376033L253.54385416666668,69.17797483225621L253.6600520833333,49.583707976276784L255.05442708333334,41.59637863191993L255.28682291666667,51.34244256376736L255.51921875,66.34392707672197" style="fill: none;" fill="none"></path></g></g></g></g><g opacity="0.2"><g><g><g><path stroke="rgb(255, 112, 67)" stroke-width="2px" d="M23.820572916666666,148.07692307692307L23.936770833333334,148.07692307692307L24.401562499999997,148.07692307692307L24.51776041666667,148.07692307692307L24.75015625,148.07692307692307L24.866354166666667,148.07692307692307L24.982552083333335,148.07692307692307L25.21494791666667,148.07692307692307L25.331145833333334,148.07692307692307L25.447343749999998,148.07692307692307L25.563541666666666,148.07692307692307L26.028333333333336,148.07692307692307L27.07411458333333,148.07692307692307L27.1903125,148.07692307692307L27.422708333333333,148.07692307692307L27.77130208333333,148.07692307692307L27.887500000000003,148.07692307692307L28.11989583333333,84.80769230769232L28.352291666666666,148.07692307692307L28.468489583333334,148.07692307692307L28.70088541666667,148.07692307692307L28.93328125,148.07692307692307L29.049479166666668,148.07692307692307L29.398072916666667,148.07692307692307L29.514270833333335,148.07692307692307L29.63046875,145.3846153846154L29.74666666666667,148.07692307692307L29.862864583333334,148.07692307692307L30.211458333333333,148.07692307692307L30.32765625,148.07692307692307L30.560052083333336,148.07692307692307L30.792447916666667,148.07692307692307L30.908645833333335,148.07692307692307L31.02484375,148.07692307692307L31.141041666666666,148.07692307692307L31.489635416666665,148.07692307692307L31.605833333333333,148.07692307692307L31.72203125,148.07692307692307L31.838229166666668,148.07692307692307L32.070625,148.07692307692307L32.41921875,148.07692307692307L33.00020833333333,148.07692307692307L33.11640625,148.07692307692307L33.23260416666667,148.07692307692307L33.34880208333333,148.07692307692307L33.464999999999996,148.07692307692307L33.58119791666667,148.07692307692307L34.1621875,148.07692307692307L35.09177083333333,148.07692307692307L35.440364583333334,47.11538461538462L35.5565625,148.07692307692307L36.36994791666666,148.07692307692307L36.71854166666666,148.07692307692307L36.9509375,148.07692307692307L37.067135416666666,148.07692307692307L37.18333333333333,148.07692307692307L37.648125,137.3076923076923L37.764322916666664,148.07692307692307L37.880520833333335,148.07692307692307L38.229114583333335,148.07692307692307L38.345312500000006,148.07692307692307L38.693906250000005,148.07692307692307L39.15869791666667,148.07692307692307L39.391093749999996,148.07692307692307L39.62348958333334,148.07692307692307L39.739687499999995,47.11538461538462L39.855885416666666,148.07692307692307L39.97208333333334,148.07692307692307L40.436875,148.07692307692307L40.669270833333336,148.07692307692307L41.017864583333335,144.03846153846152L41.1340625,148.07692307692307L41.25026041666667,92.88461538461539L41.48265625,148.07692307692307L41.59885416666667,148.07692307692307L41.71505208333334,148.07692307692307L42.06364583333334,148.07692307692307L42.29604166666667,148.07692307692307L42.41223958333333,148.07692307692307L42.64463541666667,148.07692307692307L42.76083333333333,103.65384615384616L43.10942708333333,148.07692307692307L43.69041666666667,148.07692307692307L43.80661458333333,148.07692307692307L43.9228125,148.07692307692307L44.155208333333334,148.07692307692307L44.27140625,148.07692307692307L44.50380208333333,88.84615384615384L44.73619791666667,72.6923076923077L44.85239583333333,148.07692307692307L44.968593750000004,148.07692307692307L45.08479166666666,148.07692307692307L45.3171875,37.69230769230769L45.43338541666666,148.07692307692307L46.246770833333336,148.07692307692307L46.7115625,95.57692307692308L47.17635416666666,80.76923076923077L47.292552083333334,148.07692307692307L47.408750000000005,135.96153846153845L47.87354166666667,129.23076923076923L48.22213541666667,106.34615384615385L48.570729166666666,71.34615384615384L48.68692708333334,148.07692307692307L49.03552083333334,144.03846153846152L49.15171875,107.6923076923077L49.384114583333336,41.73076923076924L49.5003125,56.53846153846153L49.616510416666664,148.07692307692307L49.84890625,41.73076923076924L49.96510416666667,29.615384615384606L50.1975,96.92307692307693L50.31369791666667,148.07692307692307L50.42989583333334,148.07692307692307L50.77848958333334,148.07692307692307L51.12708333333333,125.1923076923077L51.708072916666666,148.07692307692307L51.94046875,65.96153846153847L52.17286458333333,71.34615384615384L52.2890625,148.07692307692307L52.870052083333334,109.03846153846153L53.21864583333333,72.6923076923077L53.33484375,142.69230769230768L53.45104166666667,70L53.56723958333333,140L53.79963541666666,87.5L54.26442708333333,56.53846153846153L54.496822916666666,68.65384615384616L54.72921875,102.30769230769229L54.961614583333336,148.07692307692307L55.54260416666666,135.96153846153845L55.775000000000006,100.96153846153845L56.23979166666666,148.07692307692307L56.820781249999996,103.65384615384616L57.05317708333334,148.07692307692307L57.169374999999995,100.96153846153845L57.517968749999994,70L57.75036458333334,148.07692307692307L57.8665625,148.07692307692307L57.982760416666665,76.73076923076923L58.21515625,148.07692307692307L58.331354166666664,87.5L58.447552083333335,148.07692307692307L58.91234375,148.07692307692307L59.02854166666667,65.96153846153847L59.2609375,100.96153846153845L59.609531249999996,14.807692307692314L60.07432291666667,114.42307692307692L60.19052083333333,6.730769230769226L60.30671875,48.46153846153847L60.422916666666666,83.46153846153845L60.6553125,107.6923076923077L61.00390625,0L61.12010416666667,43.07692307692308L61.23630208333333,71.34615384615384L61.584895833333334,95.57692307692308L61.70109375,98.26923076923077L61.93348958333333,113.07692307692307L62.63067708333333,48.46153846153847L62.86307291666666,36.346153846153854L63.211666666666666,138.65384615384616L63.32786458333333,-5.3846153846153655L63.560260416666665,115.76923076923076L63.676458333333336,123.84615384615384L64.25744791666666,148.07692307692307L64.37364583333333,25.576923076923084L64.60604166666667,129.23076923076923L64.8384375,126.53846153846153L64.95463541666666,148.07692307692307L65.07083333333334,29.615384615384606L65.41942708333333,51.153846153846146L65.535625,148.07692307692307L65.88421875,61.92307692307692L66.00041666666667,148.07692307692307L66.2328125,148.07692307692307L66.34901041666667,148.07692307692307L66.58140625,17.499999999999996L67.04619791666667,83.46153846153845L67.16239583333333,-4.038461538461524L67.27859375,72.6923076923077L67.51098958333334,148.07692307692307L67.6271875,148.07692307692307L67.97578125,130.57692307692307L68.09197916666666,98.26923076923077L68.20817708333334,133.26923076923077L68.324375,148.07692307692307L68.55677083333333,0L68.67296875,103.65384615384616L68.78916666666667,92.88461538461539L68.90536458333332,106.34615384615385L69.95114583333334,148.07692307692307L70.06734374999999,96.92307692307693L70.29973958333333,92.88461538461539L70.64833333333334,16.153846153846153L71.46171874999999,122.49999999999999L71.57791666666667,78.07692307692307L72.04270833333334,102.30769230769229L72.15890625,137.3076923076923L72.27510416666667,94.23076923076923L72.50750000000001,102.30769230769229L72.73989583333332,119.8076923076923L73.2046875,109.03846153846153L74.25046875,102.30769230769229L74.36666666666666,148.07692307692307L74.48286458333334,8.076923076923068L74.5990625,32.30769230769231L74.83145833333333,84.80769230769232L74.94765625,37.69230769230769L75.29625,103.65384615384616L75.64484374999999,34.99999999999999L76.45822916666667,71.34615384615384L76.57442708333333,148.07692307692307L76.69062500000001,79.42307692307693L76.80682291666666,36.346153846153854L77.03921875,109.03846153846153L77.15541666666667,96.92307692307693L77.27161458333333,148.07692307692307L77.50401041666666,102.30769230769229L77.62020833333332,9.423076923076929L77.73640625,105L77.96880208333334,148.07692307692307L78.20119791666666,36.346153846153854L78.31739583333334,0L78.78218749999999,18.846153846153836L79.59557291666667,92.88461538461539L79.94416666666667,37.69230769230769L80.06036458333334,13.461538461538453L80.29276041666667,95.57692307692308L80.52515625,105L80.87375,34.99999999999999L82.15192708333332,-4.038461538461524L82.50052083333334,74.03846153846155L82.61671875,34.99999999999999L82.73291666666667,92.88461538461539L82.9653125,2.6923076923076827L83.19770833333334,146.73076923076923L83.31390625,110.38461538461539L83.54630208333333,2.6923076923076827L84.12729166666668,34.99999999999999L84.24348958333333,79.42307692307693L84.94067708333333,94.23076923076923L85.17307291666667,92.88461538461539L85.28927083333333,84.80769230769232L85.40546875000001,129.23076923076923L85.52166666666666,75.38461538461539L85.63786458333333,75.38461538461539L85.7540625,121.15384615384615L85.87026041666667,36.346153846153854L85.98645833333333,22.88461538461538L86.10265625000001,92.88461538461539L86.21885416666666,110.38461538461539L86.45125,88.84615384615384L86.79984375000001,45.76923076923076L86.91604166666666,28.269230769230766L87.03223958333334,79.42307692307693L87.26463541666666,34.99999999999999L87.72942708333333,82.11538461538461L87.96182291666668,80.76923076923077L88.19421874999999,13.461538461538453L88.65901041666667,32.30769230769231L88.77520833333334,32.30769230769231L88.89140624999999,67.3076923076923L89.12380208333333,26.923076923076923L89.35619791666667,83.46153846153845L89.58859375,12.115384615384611L89.82098958333333,32.30769230769231L89.93718750000001,-1.3461538461538414L90.28578125,96.92307692307693L90.51817708333333,125.1923076923077L90.634375,107.6923076923077L90.75057291666667,32.30769230769231L90.86677083333332,76.73076923076923L90.98296875,100.96153846153845L91.09916666666666,28.269230769230766L91.3315625,118.46153846153847L91.44776041666667,32.30769230769231L92.02875,36.346153846153854L92.14494791666668,43.07692307692308L92.37734375,39.03846153846153L92.49354166666667,122.49999999999999L92.60973958333334,34.99999999999999L92.95833333333333,36.346153846153854L93.19072916666667,95.57692307692308L93.423125,106.34615384615385L93.65552083333333,106.34615384615385L93.88791666666667,18.846153846153836L94.12031250000001,34.99999999999999L94.23651041666666,123.84615384615384L94.35270833333333,86.15384615384616L94.70130208333333,71.34615384615384L95.16609375,33.65384615384615L95.28229166666667,-5.3846153846153655L95.51468750000001,32.30769230769231L95.63088541666666,44.42307692307692L95.86328125,118.46153846153847L96.32807291666666,48.46153846153847L96.90906249999999,144.03846153846152L97.72244791666667,25.576923076923084L97.83864583333333,80.76923076923077L98.07104166666667,33.65384615384615L98.18723958333334,84.80769230769232L98.3034375,40.38461538461538L98.41963541666667,119.8076923076923L98.53583333333333,30.961538461538467L98.65203125000001,82.11538461538461L98.88442708333332,88.84615384615384L99.000625,33.65384615384615L99.46541666666667,32.30769230769231L99.58161458333332,2.6923076923076827L99.81401041666666,94.23076923076923L100.04640625,30.961538461538467L100.395,0L100.62739583333334,67.3076923076923L100.74359375,25.576923076923084L100.85979166666668,25.576923076923084L101.20838541666667,34.99999999999999L101.32458333333334,103.65384615384616L101.44078125,60.57692307692307L101.55697916666668,64.61538461538461L101.67317708333333,88.84615384615384L101.90557291666667,146.73076923076923L102.02177083333333,92.88461538461539L102.13796875,14.807692307692314L102.37036458333333,5.384615384615385L102.4865625,39.03846153846153L102.60276041666667,32.30769230769231L102.71895833333333,94.23076923076923L102.83515625000001,1.3461538461538414L102.95135416666666,13.461538461538453L103.18375,33.65384615384615L103.29994791666667,83.46153846153845L103.64854166666666,33.65384615384615L104.11333333333334,25.576923076923084L104.46192708333334,84.80769230769232L104.578125,47.11538461538462L104.69432291666666,9.423076923076929L104.92671874999999,76.73076923076923L105.04291666666666,48.46153846153847L105.15911458333333,72.6923076923077L105.2753125,32.30769230769231L105.50770833333334,37.69230769230769L105.62390624999999,26.923076923076923L105.74010416666667,40.38461538461538L106.20489583333334,39.03846153846153L106.6696875,20.192307692307697L106.78588541666667,82.11538461538461L107.01828125,33.65384615384615L107.13447916666667,26.923076923076923L107.25067708333333,28.269230769230766L107.36687500000001,34.99999999999999L107.48307291666667,94.23076923076923L107.59927083333332,90.19230769230768L107.94786458333333,43.07692307692308L108.0640625,33.65384615384615L108.76125,30.961538461538467L108.99364583333333,105L109.10984375,30.961538461538467L109.22604166666666,30.961538461538467L109.34223958333334,28.269230769230766L109.57463541666668,32.30769230769231L109.92322916666667,40.38461538461538L110.03942708333334,32.30769230769231L110.38802083333333,37.69230769230769L110.50421874999999,24.230769230769223L110.62041666666667,39.03846153846153L110.8528125,33.65384615384615L111.08520833333333,106.34615384615385L111.43380208333333,138.65384615384616L111.55000000000001,34.99999999999999L111.78239583333333,36.346153846153854L112.13098958333333,5.384615384615385L112.24718750000001,48.46153846153847L112.36338541666666,33.65384615384615L112.59578125,26.923076923076923L112.71197916666667,36.346153846153854L112.82817708333334,41.73076923076924L113.06057291666666,-1.3461538461538414L113.17677083333334,65.96153846153847L113.29296875,135.96153846153845L113.87395833333333,12.115384615384611L114.33874999999999,148.07692307692307L114.45494791666667,123.84615384615384L114.68734375,57.884615384615394L114.91973958333334,34.99999999999999L115.15213541666667,105L115.26833333333333,61.92307692307692L115.38453125,36.346153846153854L115.50072916666667,36.346153846153854L115.61692708333334,37.69230769230769L115.733125,40.38461538461538L115.96552083333333,115.76923076923076L116.19791666666667,44.42307692307692L116.4303125,33.65384615384615L116.77890625,39.03846153846153L117.01130208333332,141.34615384615384L117.1275,148.07692307692307L117.24369791666666,39.03846153846153L117.70848958333333,148.07692307692307L117.94088541666666,-1.3461538461538414L118.05708333333334,92.88461538461539L118.28947916666668,123.84615384615384L118.63807291666667,37.69230769230769L118.87046875,28.269230769230766L118.98666666666668,40.38461538461538L119.10286458333333,10.76923076923077L119.45145833333333,32.30769230769231L119.80005208333333,18.846153846153836L119.91625,30.961538461538467L120.14864583333333,33.65384615384615L120.38104166666666,40.38461538461538L120.6134375,43.07692307692308L121.19442708333332,36.346153846153854L121.42682291666667,130.57692307692307L121.54302083333334,51.153846153846146L121.65921875000001,30.961538461538467L121.77541666666666,75.38461538461539L122.12401041666666,45.76923076923076L122.82119791666668,76.73076923076923L123.05359374999999,9.423076923076929L123.16979166666667,20.192307692307697L123.28598958333333,94.23076923076923L123.4021875,47.11538461538462L123.51838541666667,34.99999999999999L123.98317708333333,88.84615384615384L124.21557291666667,39.03846153846153L124.33177083333334,86.15384615384616L124.68036458333333,4.038461538461544L124.79656250000001,114.42307692307692L124.91276041666667,44.42307692307692L125.02895833333332,34.99999999999999L125.14515625,40.38461538461538L125.37755208333333,40.38461538461538L125.49375,26.923076923076923L125.60994791666667,24.230769230769223L125.72614583333332,8.076923076923068L125.95854166666666,21.53846153846154L126.30713541666667,140L126.53953125,39.03846153846153L126.65572916666666,26.923076923076923L126.888125,84.80769230769232L127.00432291666668,41.73076923076924L127.35291666666667,148.07692307692307L127.46911458333334,106.34615384615385L127.70151041666668,134.6153846153846L127.81770833333333,115.76923076923076L128.63109375,18.846153846153836L128.74729166666665,98.26923076923077L128.86348958333335,86.15384615384616L128.9796875,1.3461538461538414L129.09588541666665,92.88461538461539L129.21208333333334,87.5L129.32828125,102.30769230769229L129.56067708333333,109.03846153846153L129.676875,26.923076923076923L129.79307291666666,-6.730769230769246L130.14166666666668,45.76923076923076L130.25786458333334,48.46153846153847L130.3740625,74.03846153846155L130.49026041666667,79.42307692307693L130.72265625,24.230769230769223L131.41984375,32.30769230769231L131.53604166666668,26.923076923076923L131.65223958333334,70L131.88463541666667,29.615384615384606L132.34942708333335,0L132.69802083333335,123.84615384615384L133.04661458333334,79.42307692307693L133.51140625,83.46153846153845L133.85999999999999,76.73076923076923L133.97619791666668,13.461538461538453L134.09239583333334,-1.3461538461538414L134.32479166666667,148.07692307692307L134.44098958333333,51.153846153846146L134.5571875,57.884615384615394L134.90578125,-5.3846153846153655L135.02197916666668,148.07692307692307L135.254375,30.961538461538467L135.48677083333334,34.99999999999999L135.60296875,39.03846153846153L135.83536458333333,4.038461538461544L136.06776041666666,36.346153846153854L136.18395833333332,30.961538461538467L136.41635416666668,28.269230769230766L136.64875,25.576923076923084L136.76494791666667,37.69230769230769L136.88114583333333,16.153846153846153L136.99734375,39.03846153846153L137.3459375,87.5L137.46213541666665,109.03846153846153L137.57833333333335,18.846153846153836L137.92692708333334,30.961538461538467L138.043125,-6.730769230769246L138.97270833333334,2.6923076923076827L139.32130208333334,121.15384615384615L139.4375,88.84615384615384L139.66989583333333,37.69230769230769L139.90229166666668,126.53846153846153L140.01848958333332,1.3461538461538414L140.3670833333333,79.42307692307693L140.48328125,16.153846153846153L140.71567708333336,-5.3846153846153655L140.831875,92.88461538461539L140.94807291666666,44.42307692307692L141.06427083333335,-2.6923076923076827L141.41286458333335,98.26923076923077L142.34244791666666,148.07692307692307L142.45864583333335,29.615384615384606L142.57484374999999,131.92307692307693L142.80723958333334,33.65384615384615L143.03963541666667,41.73076923076924L143.15583333333333,36.346153846153854L143.27203125,78.07692307692307L143.50442708333333,43.07692307692308L143.73682291666665,30.961538461538467L143.85302083333335,48.46153846153847L143.96921875,30.961538461538467L144.3178125,87.5L144.43401041666667,80.76923076923077L144.55020833333333,39.03846153846153L145.13119791666665,13.461538461538453L145.36359375,134.6153846153846L145.47979166666664,36.346153846153854L145.7121875,5.384615384615385L145.82838541666666,105L146.06078125000002,20.192307692307697L146.75796875,17.499999999999996L146.87416666666664,26.923076923076923L147.1065625,9.423076923076929L147.33895833333332,148.07692307692307L147.80375,80.76923076923077L148.03614583333334,51.153846153846146L148.26854166666666,34.99999999999999L148.5009375,29.615384615384606L148.73333333333332,110.38461538461539L148.96572916666668,39.03846153846153L149.0819270833333,107.6923076923077L149.198125,49.80769230769231L149.31432291666667,102.30769230769229L149.43052083333336,91.53846153846152L149.8953125,29.615384615384606L150.12770833333335,90.19230769230768L150.24390624999998,22.88461538461538L150.94109375,28.269230769230766L151.17348958333335,30.961538461538467L151.40588541666668,28.269230769230766L151.52208333333334,36.346153846153854L151.63828124999998,98.26923076923077L152.33546875,57.884615384615394L152.6840625,-8.076923076923087L152.91645833333334,41.73076923076924L153.26505208333333,95.57692307692308L153.61364583333332,83.46153846153845L153.72984375000001,28.269230769230766L153.96223958333334,-1.3461538461538414L154.0784375,84.80769230769232L154.19463541666664,47.11538461538462L154.31083333333333,79.42307692307693L154.54322916666666,30.961538461538467L154.65942708333333,48.46153846153847L154.89182291666665,78.07692307692307L155.00802083333332,76.73076923076923L155.12421875,131.92307692307693L155.4728125,26.923076923076923L155.58901041666664,25.576923076923084L155.82140625,122.49999999999999L156.75098958333334,-4.038461538461524L156.8671875,40.38461538461538L156.98338541666666,20.192307692307697L157.09958333333333,30.961538461538467L157.44817708333332,78.07692307692307L157.56437499999998,44.42307692307692L157.68057291666668,130.57692307692307L158.02916666666667,71.34615384615384L158.14536458333336,32.30769230769231L158.2615625,79.42307692307693L158.61015625,30.961538461538467L160.00453124999999,30.961538461538467L160.35312499999998,53.84615384615385L160.58552083333333,34.99999999999999L160.70171875,82.11538461538461L160.93411458333333,87.5L161.0503125,37.69230769230769L161.39890625,33.65384615384615L161.7475,111.73076923076923L161.86369791666667,39.03846153846153L161.97989583333333,29.615384615384606L162.09609375000002,52.50000000000001L162.21229166666666,21.53846153846154L162.32848958333332,20.192307692307697L162.44468750000001,79.42307692307693L162.56088541666665,34.99999999999999L162.79328125,26.923076923076923L163.02567708333333,68.65384615384616L163.141875,98.26923076923077L163.37427083333333,5.384615384615385L163.60666666666665,32.30769230769231L163.8390625,95.57692307692308L163.95526041666665,29.615384615384606L164.07145833333334,103.65384615384616L164.18765625,133.26923076923077L164.30385416666664,122.49999999999999L164.42005208333333,28.269230769230766L164.88484375000002,29.615384615384606L165.46583333333334,40.38461538461538L165.58203125,40.38461538461538L165.81442708333333,29.615384615384606L165.930625,99.61538461538461L166.39541666666668,-1.3461538461538414L166.5116145833333,39.03846153846153L166.6278125,26.923076923076923L166.86020833333336,30.961538461538467L167.20880208333335,25.576923076923084L167.55739583333335,86.15384615384616L167.78979166666667,-1.3461538461538414L168.0221875,127.8846153846154L168.13838541666667,29.615384615384606L168.37078125,103.65384615384616L168.48697916666666,41.73076923076924L168.83557291666668,26.923076923076923L168.95177083333334,36.346153846153854L169.06796874999998,20.192307692307697L169.30036458333333,68.65384615384616L169.4165625,68.65384615384616L169.53276041666666,37.69230769230769L169.76515625,4.038461538461544L169.88135416666665,29.615384615384606L169.99755208333335,87.5L170.11375,-2.6923076923076827L170.22994791666667,29.615384615384606L170.34614583333334,32.30769230769231L170.92713541666666,87.5L171.04333333333332,39.03846153846153L171.27572916666665,32.30769230769231L171.74052083333333,39.03846153846153L171.85671875,37.69230769230769L172.08911458333333,21.53846153846154L172.55390625,83.46153846153845L172.78630208333334,40.38461538461538L173.01869791666664,68.65384615384616L173.25109375,79.42307692307693L173.3672916666667,24.230769230769223L173.48348958333332,117.11538461538463L173.59968750000002,148.07692307692307L173.83208333333332,-4.038461538461524L174.18067708333334,32.30769230769231L174.296875,37.69230769230769L174.52927083333333,0L174.64546875,109.03846153846153L174.76166666666668,29.615384615384606L174.99406249999998,75.38461538461539L175.45885416666667,91.53846153846152L175.69125,91.53846153846152L175.80744791666666,24.230769230769223L176.03984375,87.5L176.15604166666668,25.576923076923084L176.50463541666667,84.80769230769232L176.62083333333334,22.88461538461538L177.20182291666666,24.230769230769223L177.31802083333335,68.65384615384616L177.43421874999999,6.730769230769226L177.55041666666668,80.76923076923077L177.78281249999998,90.19230769230768L178.01520833333333,25.576923076923084L178.13140625,29.615384615384606L178.24760416666666,1.3461538461538414L178.36380208333333,67.3076923076923L178.48,79.42307692307693L178.59619791666665,92.88461538461539L178.94479166666667,95.57692307692308L179.29338541666667,20.192307692307697L179.52578125000002,103.65384615384616L179.75817708333332,59.23076923076923L179.87437500000001,18.846153846153836L179.99057291666665,-5.3846153846153655L180.10677083333334,123.84615384615384L180.22296875,24.230769230769223L180.68776041666666,22.88461538461538L181.15255208333332,29.615384615384606L181.38494791666665,76.73076923076923L181.50114583333334,29.615384615384606L181.84973958333333,16.153846153846153L181.9659375,144.03846153846152L182.0821354166667,4.038461538461544L182.43072916666668,24.230769230769223L182.77932291666667,76.73076923076923L182.89552083333334,32.30769230769231L183.01171875,59.23076923076923L183.24411458333333,24.230769230769223L183.3603125,87.5L183.47651041666668,78.07692307692307L183.82510416666668,79.42307692307693L184.0575,34.99999999999999L184.17369791666667,26.923076923076923L184.28989583333336,33.65384615384615L184.40609375,28.269230769230766L184.52229166666666,28.269230769230766L184.63848958333335,43.07692307692308L184.87088541666668,28.269230769230766L184.98708333333335,33.65384615384615L185.33567708333334,28.269230769230766L185.91666666666666,1.3461538461538414L187.31104166666665,47.11538461538462L187.42723958333335,41.73076923076924L187.5434375,32.30769230769231L187.65963541666667,148.07692307692307L188.12442708333333,55.19230769230769L188.47302083333332,145.3846153846154L188.58921875000001,78.07692307692307L188.82161458333334,78.07692307692307L188.9378125,64.61538461538461L189.05401041666664,21.53846153846154L189.17020833333333,30.961538461538467L189.40260416666666,39.03846153846153L189.63500000000002,28.269230769230766L189.75119791666665,28.269230769230766L189.86739583333332,33.65384615384615L190.09979166666665,33.65384615384615L190.21598958333334,25.576923076923084L190.3321875,13.461538461538453L190.56458333333333,83.46153846153845L190.7969791666667,34.99999999999999L191.49416666666667,88.84615384615384L191.7265625,47.11538461538462L192.30755208333332,29.615384615384606L192.42374999999998,28.269230769230766L192.88854166666667,74.03846153846155L193.46953125,83.46153846153845L193.58572916666668,90.19230769230768L194.05052083333334,29.615384615384606L194.5153125,33.65384615384615L194.86390624999999,113.07692307692307L195.21249999999998,33.65384615384615L195.32869791666667,10.76923076923077L195.44489583333333,40.38461538461538L195.79348958333333,26.923076923076923L195.9096875,90.19230769230768L196.25828125,64.61538461538461L196.49067708333334,76.73076923076923L196.606875,26.923076923076923L196.72307291666667,33.65384615384615L197.53645833333334,25.576923076923084L197.65265625,110.38461538461539L197.76885416666664,80.76923076923077L197.88505208333333,28.269230769230766L198.11744791666666,53.84615384615385L198.23364583333333,37.69230769230769L198.34984375000002,25.576923076923084L198.46604166666665,12.115384615384611L198.58223958333332,13.461538461538453L198.6984375,44.42307692307692L198.81463541666665,41.73076923076924L198.93083333333334,75.38461538461539L199.04703125,30.961538461538467L199.395625,148.07692307692307L199.62802083333332,36.346153846153854L200.20901041666667,64.61538461538461L200.32520833333334,5.384615384615385L200.44140625,83.46153846153845L200.67380208333333,75.38461538461539L201.4871875,79.42307692307693L201.71958333333336,-1.3461538461538414L202.30057291666668,148.07692307692307L202.41677083333335,32.30769230769231L202.8815625,24.230769230769223L203.11395833333336,28.269230769230766L203.23015625,2.6923076923076827L203.46255208333335,80.76923076923077L203.57874999999999,5.384615384615385L203.81114583333334,29.615384615384606L203.92734374999998,34.99999999999999L204.62453125,79.42307692307693L204.74072916666665,148.07692307692307L204.85692708333335,25.576923076923084L205.43791666666667,83.46153846153845L205.55411458333333,4.038461538461544L206.59989583333333,79.42307692307693L206.71609375,64.61538461538461L207.06468750000002,10.76923076923077L207.18088541666665,29.615384615384606L207.29708333333332,22.88461538461538L207.52947916666665,28.269230769230766L207.761875,118.46153846153847L207.99427083333333,4.038461538461544L208.34286458333332,100.96153846153845L208.45906250000002,34.99999999999999L208.69145833333332,90.19230769230768L208.80765625,8.076923076923068L209.04005208333334,88.84615384615384L209.27244791666666,21.53846153846154L209.38864583333333,72.6923076923077L209.62104166666668,75.38461538461539L209.73723958333332,8.076923076923068L210.20203125,8.076923076923068L210.31822916666667,30.961538461538467L210.550625,71.34615384615384L210.66682291666666,-6.730769230769246L210.78302083333335,75.38461538461539L210.89921875,22.88461538461538L211.13161458333335,80.76923076923077L211.24781249999998,-2.6923076923076827L211.36401041666667,22.88461538461538L211.48020833333334,145.3846153846154L211.945,119.8076923076923L212.17739583333335,32.30769230769231L212.29359374999999,76.73076923076923L212.40979166666668,76.73076923076923L212.64218749999998,74.03846153846155L212.87458333333333,91.53846153846152L213.10697916666666,25.576923076923084L213.339375,142.69230769230768L213.45557291666665,71.34615384615384L213.57177083333335,26.923076923076923L213.80416666666667,2.6923076923076827L213.92036458333334,67.3076923076923L214.0365625,111.73076923076923L214.15276041666667,25.576923076923084L214.26895833333333,1.3461538461538414L214.38515625000002,92.88461538461539L214.61755208333332,148.07692307692307L214.73375000000001,16.153846153846153L215.08234375,4.038461538461544L215.19854166666664,65.96153846153847L215.4309375,4.038461538461544L215.54713541666666,40.38461538461538L215.89572916666665,24.230769230769223L216.01192708333332,12.115384615384611L216.128125,75.38461538461539L216.24432291666665,18.846153846153836L216.36052083333334,83.46153846153845L216.59291666666664,16.153846153846153L217.05770833333332,36.346153846153854L217.29010416666668,135.96153846153845L217.40630208333332,84.80769230769232L217.5225,121.15384615384615L217.87109375,68.65384615384616L217.98729166666666,22.88461538461538L218.2196875,95.57692307692308L218.68447916666668,113.07692307692307L218.8006770833333,25.576923076923084L218.916875,64.61538461538461L219.03307291666667,37.69230769230769L219.26546875,76.73076923076923L219.73026041666668,21.53846153846154L219.84645833333335,70L220.07885416666667,91.53846153846152L220.19505208333334,13.461538461538453L220.31125,1.3461538461538414L220.42744791666667,-1.3461538461538414L220.65984375,24.230769230769223L221.00843749999999,29.615384615384606L221.12463541666668,41.73076923076924L221.24083333333334,28.269230769230766L221.35703124999998,22.88461538461538L221.47322916666667,36.346153846153854L221.82182291666666,22.88461538461538L221.93802083333333,32.30769230769231L222.4028125,24.230769230769223L222.51901041666667,13.461538461538453L222.75140625,111.73076923076923L222.86760416666667,-5.3846153846153655L222.98380208333333,-5.3846153846153655L223.44859375000001,30.961538461538467L223.7971875,45.76923076923076L224.02958333333333,30.961538461538467L224.37817708333333,5.384615384615385L224.49437500000002,102.30769230769229L224.61057291666665,37.69230769230769L224.72677083333332,26.923076923076923L224.84296875,60.57692307692307L225.07536458333334,2.6923076923076827L225.1915625,26.923076923076923L225.30776041666664,24.230769230769223L225.6563541666667,83.46153846153845L225.77255208333332,133.26923076923077L226.00494791666668,74.03846153846155L226.12114583333332,26.923076923076923L226.23734375,63.26923076923078L226.5859375,13.461538461538453L226.81833333333333,17.499999999999996L226.93453125,29.615384615384606L227.05072916666668,20.192307692307697L227.16692708333332,123.84615384615384L227.9803125,125.1923076923077L228.09651041666666,61.92307692307692L228.44510416666668,134.6153846153846L229.02609375,86.15384615384616L229.49088541666666,55.19230769230769L229.72328124999999,92.88461538461539L229.95567708333334,4.038461538461544L230.18807291666667,36.346153846153854L230.30427083333333,32.30769230769231L230.42046875,29.615384615384606L230.53666666666666,33.65384615384615L231.00145833333335,28.269230769230766L231.11765625,65.96153846153847L231.23385416666667,30.961538461538467L231.46625,56.53846153846153L231.58244791666667,25.576923076923084L231.69864583333333,148.07692307692307L232.16343750000001,4.038461538461544L232.39583333333334,122.49999999999999L232.62822916666664,18.846153846153836L232.860625,148.07692307692307L232.97682291666666,135.96153846153845L233.20921875000002,79.42307692307693L233.67401041666665,80.76923076923077L233.90640625,29.615384615384606L234.02260416666664,2.6923076923076827L234.3711979166667,106.34615384615385L234.71979166666668,71.34615384615384L235.18458333333334,90.19230769230768L235.41697916666666,127.8846153846154L235.53317708333333,21.53846153846154L235.88177083333332,49.80769230769231L236.3465625,67.3076923076923L236.46276041666667,1.3461538461538414L236.57895833333336,25.576923076923084L236.69515625,83.46153846153845L237.04375,82.11538461538461L237.15994791666668,75.38461538461539L237.27614583333335,30.961538461538467L237.50854166666667,18.846153846153836L237.62473958333334,2.6923076923076827L237.7409375,25.576923076923084L237.97333333333336,86.15384615384616L238.08953125,82.11538461538461L238.43812499999999,76.73076923076923L238.55432291666668,67.3076923076923L238.78671874999998,34.99999999999999L239.01911458333333,71.34615384615384L239.1353125,71.34615384615384L239.25151041666666,30.961538461538467L240.06489583333334,74.03846153846155L240.18109375,24.230769230769223L240.29729166666667,-4.038461538461524L240.41348958333333,1.3461538461538414L241.11067708333334,95.57692307692308L241.226875,74.03846153846155L241.34307291666664,70L241.45927083333333,26.923076923076923L241.57546875,83.46153846153845L241.80786458333333,28.269230769230766L242.15645833333332,121.15384615384615L242.50505208333334,34.99999999999999L242.96984375,82.11538461538461L243.0860416666667,84.80769230769232L243.20223958333332,68.65384615384616L243.31843750000002,76.73076923076923L243.43463541666668,94.23076923076923L243.66703125,10.76923076923077L243.78322916666667,68.65384615384616L244.24802083333333,29.615384615384606L244.59661458333332,87.5L244.71281249999998,76.73076923076923L245.06140625,75.38461538461539L245.17760416666667,72.6923076923077L245.29380208333336,-2.6923076923076827L245.41,37.69230769230769L245.52619791666666,16.153846153846153L245.75859375,72.6923076923077L245.87479166666668,130.57692307692307L245.99098958333335,-2.6923076923076827L246.10718749999998,68.65384615384616L246.22338541666667,82.11538461538461L246.68817708333336,79.42307692307693L246.804375,2.6923076923076827L246.92057291666666,68.65384615384616L247.26916666666668,68.65384615384616L247.50156249999998,105L247.61776041666667,76.73076923076923L247.73395833333333,6.730769230769226L247.96635416666666,87.5L248.08255208333333,45.76923076923076L248.19875,20.192307692307697L248.43114583333335,-6.730769230769246L248.54734375,71.34615384615384L248.8959375,25.576923076923084L249.12833333333333,121.15384615384615L249.36072916666666,80.76923076923077L249.47692708333332,26.923076923076923L249.70932291666665,72.6923076923077L250.05791666666664,41.73076923076924L250.2903125,72.6923076923077L250.40651041666666,33.65384615384615L250.52270833333333,109.03846153846153L250.75510416666665,63.26923076923078L250.9875,-6.730769230769246L251.10369791666665,102.30769230769229L251.21989583333334,107.6923076923077L251.6846875,-1.3461538461538414L251.8008854166667,32.30769230769231L252.03328125000002,71.34615384615384L252.26567708333332,107.6923076923077L252.84666666666666,65.96153846153847L253.31145833333332,34.99999999999999L253.42765624999998,86.15384615384616L253.54385416666668,70L253.6600520833333,20.192307692307697L255.05442708333334,29.615384615384606L255.28682291666667,65.96153846153847L255.51921875,88.84615384615384" style="fill: none;" fill="none"></path></g></g></g></g></g><g><g><span fill="rgb(0, 0, 0)" stroke="none" stroke-width="1px">Alt + Scroll to Zoom</span></g></g></g><g transform="translate(51, 175)" clip-path="url(#clip_1)"><clipPath id="clip_1"><rect width="278" height="25"></rect></clipPath><g><g><line x1="0" y1="0" x2="0" y2="5" style="visibility: inherit;" fill="rgb(0, 0, 0)" stroke="rgb(204, 204, 204)" stroke-width="1px"></line><line x1="23.239583333333332" y1="0" x2="23.239583333333332" y2="5" style="visibility: inherit;" fill="rgb(0, 0, 0)" stroke="rgb(204, 204, 204)" stroke-width="1px"></line><line x1="46.479166666666664" y1="0" x2="46.479166666666664" y2="5" style="visibility: inherit;" fill="rgb(0, 0, 0)" stroke="rgb(204, 204, 204)" stroke-width="1px"></line><line x1="69.71875" y1="0" x2="69.71875" y2="5" style="visibility: inherit;" fill="rgb(0, 0, 0)" stroke="rgb(204, 204, 204)" stroke-width="1px"></line><line x1="92.95833333333333" y1="0" x2="92.95833333333333" y2="5" style="visibility: inherit;" fill="rgb(0, 0, 0)" stroke="rgb(204, 204, 204)" stroke-width="1px"></line><line x1="116.19791666666667" y1="0" x2="116.19791666666667" y2="5" style="visibility: inherit;" fill="rgb(0, 0, 0)" stroke="rgb(204, 204, 204)" stroke-width="1px"></line><line x1="139.4375" y1="0" x2="139.4375" y2="5" style="visibility: inherit;" fill="rgb(0, 0, 0)" stroke="rgb(204, 204, 204)" stroke-width="1px"></line><line x1="162.67708333333334" y1="0" x2="162.67708333333334" y2="5" style="visibility: inherit;" fill="rgb(0, 0, 0)" stroke="rgb(204, 204, 204)" stroke-width="1px"></line><line x1="185.91666666666666" y1="0" x2="185.91666666666666" y2="5" style="visibility: inherit;" fill="rgb(0, 0, 0)" stroke="rgb(204, 204, 204)" stroke-width="1px"></line><line x1="209.15625" y1="0" x2="209.15625" y2="5" style="visibility: inherit;" fill="rgb(0, 0, 0)" stroke="rgb(204, 204, 204)" stroke-width="1px"></line><line x1="232.39583333333334" y1="0" x2="232.39583333333334" y2="5" style="visibility: inherit;" fill="rgb(0, 0, 0)" stroke="rgb(204, 204, 204)" stroke-width="1px"></line><line x1="255.63541666666666" y1="0" x2="255.63541666666666" y2="5" style="visibility: inherit;" fill="rgb(0, 0, 0)" stroke="rgb(204, 204, 204)" stroke-width="1px"></line><line x1="278.875" y1="0" x2="278.875" y2="5" style="visibility: inherit;" fill="rgb(0, 0, 0)" stroke="rgb(204, 204, 204)" stroke-width="1px"></line></g><g transform="translate(0, 8)"><text x="0" y="0" dx="0em" dy="0.95em" style="text-anchor: middle; visibility: hidden; font-family: Roboto, sans-serif; font-size: 12px; font-weight: 200;" fill="rgb(50, 49, 63)" stroke="none" stroke-width="1px">-200</text><text x="23.239583333333332" y="0" dx="0em" dy="0.95em" style="text-anchor: middle; visibility: inherit; font-family: Roboto, sans-serif; font-size: 12px; font-weight: 200;" fill="rgb(50, 49, 63)" stroke="none" stroke-width="1px">0</text><text x="46.479166666666664" y="0" dx="0em" dy="0.95em" style="text-anchor: middle; visibility: hidden; font-family: Roboto, sans-serif; font-size: 12px; font-weight: 200;" fill="rgb(50, 49, 63)" stroke="none" stroke-width="1px">200</text><text x="69.71875" y="0" dx="0em" dy="0.95em" style="text-anchor: middle; visibility: inherit; font-family: Roboto, sans-serif; font-size: 12px; font-weight: 200;" fill="rgb(50, 49, 63)" stroke="none" stroke-width="1px">400</text><text x="92.95833333333333" y="0" dx="0em" dy="0.95em" style="text-anchor: middle; visibility: hidden; font-family: Roboto, sans-serif; font-size: 12px; font-weight: 200;" fill="rgb(50, 49, 63)" stroke="none" stroke-width="1px">600</text><text x="116.19791666666667" y="0" dx="0em" dy="0.95em" style="text-anchor: middle; visibility: inherit; font-family: Roboto, sans-serif; font-size: 12px; font-weight: 200;" fill="rgb(50, 49, 63)" stroke="none" stroke-width="1px">800</text><text x="139.4375" y="0" dx="0em" dy="0.95em" style="text-anchor: middle; visibility: hidden; font-family: Roboto, sans-serif; font-size: 12px; font-weight: 200;" fill="rgb(50, 49, 63)" stroke="none" stroke-width="1px">1k</text><text x="162.67708333333334" y="0" dx="0em" dy="0.95em" style="text-anchor: middle; visibility: inherit; font-family: Roboto, sans-serif; font-size: 12px; font-weight: 200;" fill="rgb(50, 49, 63)" stroke="none" stroke-width="1px">1.2k</text><text x="185.91666666666666" y="0" dx="0em" dy="0.95em" style="text-anchor: middle; visibility: hidden; font-family: Roboto, sans-serif; font-size: 12px; font-weight: 200;" fill="rgb(50, 49, 63)" stroke="none" stroke-width="1px">1.4k</text><text x="209.15625" y="0" dx="0em" dy="0.95em" style="text-anchor: middle; visibility: inherit; font-family: Roboto, sans-serif; font-size: 12px; font-weight: 200;" fill="rgb(50, 49, 63)" stroke="none" stroke-width="1px">1.6k</text><text x="232.39583333333334" y="0" dx="0em" dy="0.95em" style="text-anchor: middle; visibility: hidden; font-family: Roboto, sans-serif; font-size: 12px; font-weight: 200;" fill="rgb(50, 49, 63)" stroke="none" stroke-width="1px">1.8k</text><text x="255.63541666666666" y="0" dx="0em" dy="0.95em" style="text-anchor: middle; visibility: inherit; font-family: Roboto, sans-serif; font-size: 12px; font-weight: 200;" fill="rgb(50, 49, 63)" stroke="none" stroke-width="1px">2k</text><text x="278.875" y="0" dx="0em" dy="0.95em" style="text-anchor: middle; visibility: hidden; font-family: Roboto, sans-serif; font-size: 12px; font-weight: 200;" fill="rgb(50, 49, 63)" stroke="none" stroke-width="1px">2.2k</text></g><line x1="0" y1="0" x2="278.875" y2="0" fill="rgb(0, 0, 0)" stroke="rgb(204, 204, 204)" stroke-width="1px"></line></g></g></g></g></svg>